%TF.GenerationSoftware,KiCad,Pcbnew,9.0.1*%
%TF.CreationDate,2025-05-17T19:15:48+02:00*%
%TF.ProjectId,Bandpass_Filter,42616e64-7061-4737-935f-46696c746572,v1*%
%TF.SameCoordinates,Original*%
%TF.FileFunction,Legend,Top*%
%TF.FilePolarity,Positive*%
%FSLAX46Y46*%
G04 Gerber Fmt 4.6, Leading zero omitted, Abs format (unit mm)*
G04 Created by KiCad (PCBNEW 9.0.1) date 2025-05-17 19:15:48*
%MOMM*%
%LPD*%
G01*
G04 APERTURE LIST*
%ADD10C,0.125000*%
%ADD11C,0.150000*%
%ADD12C,0.120000*%
G04 APERTURE END LIST*
D10*
X125615569Y-87269825D02*
X125548902Y-87231730D01*
X125548902Y-87231730D02*
X125448902Y-87231730D01*
X125448902Y-87231730D02*
X125348902Y-87269825D01*
X125348902Y-87269825D02*
X125282236Y-87346015D01*
X125282236Y-87346015D02*
X125248902Y-87422206D01*
X125248902Y-87422206D02*
X125215569Y-87574587D01*
X125215569Y-87574587D02*
X125215569Y-87688873D01*
X125215569Y-87688873D02*
X125248902Y-87841254D01*
X125248902Y-87841254D02*
X125282236Y-87917444D01*
X125282236Y-87917444D02*
X125348902Y-87993635D01*
X125348902Y-87993635D02*
X125448902Y-88031730D01*
X125448902Y-88031730D02*
X125515569Y-88031730D01*
X125515569Y-88031730D02*
X125615569Y-87993635D01*
X125615569Y-87993635D02*
X125648902Y-87955539D01*
X125648902Y-87955539D02*
X125648902Y-87688873D01*
X125648902Y-87688873D02*
X125515569Y-87688873D01*
X125948902Y-88031730D02*
X125948902Y-87498396D01*
X125948902Y-87650777D02*
X125982236Y-87574587D01*
X125982236Y-87574587D02*
X126015569Y-87536492D01*
X126015569Y-87536492D02*
X126082236Y-87498396D01*
X126082236Y-87498396D02*
X126148902Y-87498396D01*
X126482235Y-88031730D02*
X126415569Y-87993635D01*
X126415569Y-87993635D02*
X126382235Y-87955539D01*
X126382235Y-87955539D02*
X126348902Y-87879349D01*
X126348902Y-87879349D02*
X126348902Y-87650777D01*
X126348902Y-87650777D02*
X126382235Y-87574587D01*
X126382235Y-87574587D02*
X126415569Y-87536492D01*
X126415569Y-87536492D02*
X126482235Y-87498396D01*
X126482235Y-87498396D02*
X126582235Y-87498396D01*
X126582235Y-87498396D02*
X126648902Y-87536492D01*
X126648902Y-87536492D02*
X126682235Y-87574587D01*
X126682235Y-87574587D02*
X126715569Y-87650777D01*
X126715569Y-87650777D02*
X126715569Y-87879349D01*
X126715569Y-87879349D02*
X126682235Y-87955539D01*
X126682235Y-87955539D02*
X126648902Y-87993635D01*
X126648902Y-87993635D02*
X126582235Y-88031730D01*
X126582235Y-88031730D02*
X126482235Y-88031730D01*
X127315568Y-87498396D02*
X127315568Y-88031730D01*
X127015568Y-87498396D02*
X127015568Y-87917444D01*
X127015568Y-87917444D02*
X127048902Y-87993635D01*
X127048902Y-87993635D02*
X127115568Y-88031730D01*
X127115568Y-88031730D02*
X127215568Y-88031730D01*
X127215568Y-88031730D02*
X127282235Y-87993635D01*
X127282235Y-87993635D02*
X127315568Y-87955539D01*
X127648901Y-87498396D02*
X127648901Y-88298396D01*
X127648901Y-87536492D02*
X127715568Y-87498396D01*
X127715568Y-87498396D02*
X127848901Y-87498396D01*
X127848901Y-87498396D02*
X127915568Y-87536492D01*
X127915568Y-87536492D02*
X127948901Y-87574587D01*
X127948901Y-87574587D02*
X127982235Y-87650777D01*
X127982235Y-87650777D02*
X127982235Y-87879349D01*
X127982235Y-87879349D02*
X127948901Y-87955539D01*
X127948901Y-87955539D02*
X127915568Y-87993635D01*
X127915568Y-87993635D02*
X127848901Y-88031730D01*
X127848901Y-88031730D02*
X127715568Y-88031730D01*
X127715568Y-88031730D02*
X127648901Y-87993635D01*
X128282234Y-87955539D02*
X128315568Y-87993635D01*
X128315568Y-87993635D02*
X128282234Y-88031730D01*
X128282234Y-88031730D02*
X128248901Y-87993635D01*
X128248901Y-87993635D02*
X128282234Y-87955539D01*
X128282234Y-87955539D02*
X128282234Y-88031730D01*
X128282234Y-87536492D02*
X128315568Y-87574587D01*
X128315568Y-87574587D02*
X128282234Y-87612682D01*
X128282234Y-87612682D02*
X128248901Y-87574587D01*
X128248901Y-87574587D02*
X128282234Y-87536492D01*
X128282234Y-87536492D02*
X128282234Y-87612682D01*
X129115567Y-87803158D02*
X129448900Y-87803158D01*
X129048900Y-88031730D02*
X129282234Y-87231730D01*
X129282234Y-87231730D02*
X129515567Y-88031730D01*
X129748900Y-87955539D02*
X129782234Y-87993635D01*
X129782234Y-87993635D02*
X129748900Y-88031730D01*
X129748900Y-88031730D02*
X129715567Y-87993635D01*
X129715567Y-87993635D02*
X129748900Y-87955539D01*
X129748900Y-87955539D02*
X129748900Y-88031730D01*
X130382233Y-87231730D02*
X130248900Y-87231730D01*
X130248900Y-87231730D02*
X130182233Y-87269825D01*
X130182233Y-87269825D02*
X130148900Y-87307920D01*
X130148900Y-87307920D02*
X130082233Y-87422206D01*
X130082233Y-87422206D02*
X130048900Y-87574587D01*
X130048900Y-87574587D02*
X130048900Y-87879349D01*
X130048900Y-87879349D02*
X130082233Y-87955539D01*
X130082233Y-87955539D02*
X130115567Y-87993635D01*
X130115567Y-87993635D02*
X130182233Y-88031730D01*
X130182233Y-88031730D02*
X130315567Y-88031730D01*
X130315567Y-88031730D02*
X130382233Y-87993635D01*
X130382233Y-87993635D02*
X130415567Y-87955539D01*
X130415567Y-87955539D02*
X130448900Y-87879349D01*
X130448900Y-87879349D02*
X130448900Y-87688873D01*
X130448900Y-87688873D02*
X130415567Y-87612682D01*
X130415567Y-87612682D02*
X130382233Y-87574587D01*
X130382233Y-87574587D02*
X130315567Y-87536492D01*
X130315567Y-87536492D02*
X130182233Y-87536492D01*
X130182233Y-87536492D02*
X130115567Y-87574587D01*
X130115567Y-87574587D02*
X130082233Y-87612682D01*
X130082233Y-87612682D02*
X130048900Y-87688873D01*
X125248902Y-89319685D02*
X125248902Y-88519685D01*
X125248902Y-88519685D02*
X125415569Y-88519685D01*
X125415569Y-88519685D02*
X125515569Y-88557780D01*
X125515569Y-88557780D02*
X125582236Y-88633970D01*
X125582236Y-88633970D02*
X125615569Y-88710161D01*
X125615569Y-88710161D02*
X125648902Y-88862542D01*
X125648902Y-88862542D02*
X125648902Y-88976828D01*
X125648902Y-88976828D02*
X125615569Y-89129209D01*
X125615569Y-89129209D02*
X125582236Y-89205399D01*
X125582236Y-89205399D02*
X125515569Y-89281590D01*
X125515569Y-89281590D02*
X125415569Y-89319685D01*
X125415569Y-89319685D02*
X125248902Y-89319685D01*
X125948902Y-89319685D02*
X125948902Y-88519685D01*
X126248902Y-89319685D02*
X126248902Y-88900637D01*
X126248902Y-88900637D02*
X126215569Y-88824447D01*
X126215569Y-88824447D02*
X126148902Y-88786351D01*
X126148902Y-88786351D02*
X126048902Y-88786351D01*
X126048902Y-88786351D02*
X125982236Y-88824447D01*
X125982236Y-88824447D02*
X125948902Y-88862542D01*
X126848902Y-89281590D02*
X126782235Y-89319685D01*
X126782235Y-89319685D02*
X126648902Y-89319685D01*
X126648902Y-89319685D02*
X126582235Y-89281590D01*
X126582235Y-89281590D02*
X126548902Y-89205399D01*
X126548902Y-89205399D02*
X126548902Y-88900637D01*
X126548902Y-88900637D02*
X126582235Y-88824447D01*
X126582235Y-88824447D02*
X126648902Y-88786351D01*
X126648902Y-88786351D02*
X126782235Y-88786351D01*
X126782235Y-88786351D02*
X126848902Y-88824447D01*
X126848902Y-88824447D02*
X126882235Y-88900637D01*
X126882235Y-88900637D02*
X126882235Y-88976828D01*
X126882235Y-88976828D02*
X126548902Y-89053018D01*
X127448902Y-89281590D02*
X127382235Y-89319685D01*
X127382235Y-89319685D02*
X127248902Y-89319685D01*
X127248902Y-89319685D02*
X127182235Y-89281590D01*
X127182235Y-89281590D02*
X127148902Y-89205399D01*
X127148902Y-89205399D02*
X127148902Y-88900637D01*
X127148902Y-88900637D02*
X127182235Y-88824447D01*
X127182235Y-88824447D02*
X127248902Y-88786351D01*
X127248902Y-88786351D02*
X127382235Y-88786351D01*
X127382235Y-88786351D02*
X127448902Y-88824447D01*
X127448902Y-88824447D02*
X127482235Y-88900637D01*
X127482235Y-88900637D02*
X127482235Y-88976828D01*
X127482235Y-88976828D02*
X127148902Y-89053018D01*
X127782235Y-89319685D02*
X127782235Y-88786351D01*
X127782235Y-88938732D02*
X127815569Y-88862542D01*
X127815569Y-88862542D02*
X127848902Y-88824447D01*
X127848902Y-88824447D02*
X127915569Y-88786351D01*
X127915569Y-88786351D02*
X127982235Y-88786351D01*
X128515568Y-89319685D02*
X128515568Y-88900637D01*
X128515568Y-88900637D02*
X128482235Y-88824447D01*
X128482235Y-88824447D02*
X128415568Y-88786351D01*
X128415568Y-88786351D02*
X128282235Y-88786351D01*
X128282235Y-88786351D02*
X128215568Y-88824447D01*
X128515568Y-89281590D02*
X128448902Y-89319685D01*
X128448902Y-89319685D02*
X128282235Y-89319685D01*
X128282235Y-89319685D02*
X128215568Y-89281590D01*
X128215568Y-89281590D02*
X128182235Y-89205399D01*
X128182235Y-89205399D02*
X128182235Y-89129209D01*
X128182235Y-89129209D02*
X128215568Y-89053018D01*
X128215568Y-89053018D02*
X128282235Y-89014923D01*
X128282235Y-89014923D02*
X128448902Y-89014923D01*
X128448902Y-89014923D02*
X128515568Y-88976828D01*
X128848901Y-88786351D02*
X128848901Y-89472066D01*
X128848901Y-89472066D02*
X128815568Y-89548256D01*
X128815568Y-89548256D02*
X128748901Y-89586351D01*
X128748901Y-89586351D02*
X128715568Y-89586351D01*
X128848901Y-88519685D02*
X128815568Y-88557780D01*
X128815568Y-88557780D02*
X128848901Y-88595875D01*
X128848901Y-88595875D02*
X128882235Y-88557780D01*
X128882235Y-88557780D02*
X128848901Y-88519685D01*
X128848901Y-88519685D02*
X128848901Y-88595875D01*
X129915567Y-89624447D02*
X129882234Y-89586351D01*
X129882234Y-89586351D02*
X129815567Y-89472066D01*
X129815567Y-89472066D02*
X129782234Y-89395875D01*
X129782234Y-89395875D02*
X129748901Y-89281590D01*
X129748901Y-89281590D02*
X129715567Y-89091113D01*
X129715567Y-89091113D02*
X129715567Y-88938732D01*
X129715567Y-88938732D02*
X129748901Y-88748256D01*
X129748901Y-88748256D02*
X129782234Y-88633970D01*
X129782234Y-88633970D02*
X129815567Y-88557780D01*
X129815567Y-88557780D02*
X129882234Y-88443494D01*
X129882234Y-88443494D02*
X129915567Y-88405399D01*
X130548901Y-89319685D02*
X130148901Y-89319685D01*
X130348901Y-89319685D02*
X130348901Y-88519685D01*
X130348901Y-88519685D02*
X130282234Y-88633970D01*
X130282234Y-88633970D02*
X130215568Y-88710161D01*
X130215568Y-88710161D02*
X130148901Y-88748256D01*
X131215568Y-89319685D02*
X130815568Y-89319685D01*
X131015568Y-89319685D02*
X131015568Y-88519685D01*
X131015568Y-88519685D02*
X130948901Y-88633970D01*
X130948901Y-88633970D02*
X130882235Y-88710161D01*
X130882235Y-88710161D02*
X130815568Y-88748256D01*
X131448902Y-88519685D02*
X131882235Y-88519685D01*
X131882235Y-88519685D02*
X131648902Y-88824447D01*
X131648902Y-88824447D02*
X131748902Y-88824447D01*
X131748902Y-88824447D02*
X131815568Y-88862542D01*
X131815568Y-88862542D02*
X131848902Y-88900637D01*
X131848902Y-88900637D02*
X131882235Y-88976828D01*
X131882235Y-88976828D02*
X131882235Y-89167304D01*
X131882235Y-89167304D02*
X131848902Y-89243494D01*
X131848902Y-89243494D02*
X131815568Y-89281590D01*
X131815568Y-89281590D02*
X131748902Y-89319685D01*
X131748902Y-89319685D02*
X131548902Y-89319685D01*
X131548902Y-89319685D02*
X131482235Y-89281590D01*
X131482235Y-89281590D02*
X131448902Y-89243494D01*
X132482235Y-88786351D02*
X132482235Y-89319685D01*
X132315569Y-88481590D02*
X132148902Y-89053018D01*
X132148902Y-89053018D02*
X132582235Y-89053018D01*
X132815569Y-88595875D02*
X132848902Y-88557780D01*
X132848902Y-88557780D02*
X132915569Y-88519685D01*
X132915569Y-88519685D02*
X133082236Y-88519685D01*
X133082236Y-88519685D02*
X133148902Y-88557780D01*
X133148902Y-88557780D02*
X133182236Y-88595875D01*
X133182236Y-88595875D02*
X133215569Y-88672066D01*
X133215569Y-88672066D02*
X133215569Y-88748256D01*
X133215569Y-88748256D02*
X133182236Y-88862542D01*
X133182236Y-88862542D02*
X132782236Y-89319685D01*
X132782236Y-89319685D02*
X133215569Y-89319685D01*
X133548903Y-89319685D02*
X133682236Y-89319685D01*
X133682236Y-89319685D02*
X133748903Y-89281590D01*
X133748903Y-89281590D02*
X133782236Y-89243494D01*
X133782236Y-89243494D02*
X133848903Y-89129209D01*
X133848903Y-89129209D02*
X133882236Y-88976828D01*
X133882236Y-88976828D02*
X133882236Y-88672066D01*
X133882236Y-88672066D02*
X133848903Y-88595875D01*
X133848903Y-88595875D02*
X133815569Y-88557780D01*
X133815569Y-88557780D02*
X133748903Y-88519685D01*
X133748903Y-88519685D02*
X133615569Y-88519685D01*
X133615569Y-88519685D02*
X133548903Y-88557780D01*
X133548903Y-88557780D02*
X133515569Y-88595875D01*
X133515569Y-88595875D02*
X133482236Y-88672066D01*
X133482236Y-88672066D02*
X133482236Y-88862542D01*
X133482236Y-88862542D02*
X133515569Y-88938732D01*
X133515569Y-88938732D02*
X133548903Y-88976828D01*
X133548903Y-88976828D02*
X133615569Y-89014923D01*
X133615569Y-89014923D02*
X133748903Y-89014923D01*
X133748903Y-89014923D02*
X133815569Y-88976828D01*
X133815569Y-88976828D02*
X133848903Y-88938732D01*
X133848903Y-88938732D02*
X133882236Y-88862542D01*
X134282236Y-88862542D02*
X134215570Y-88824447D01*
X134215570Y-88824447D02*
X134182236Y-88786351D01*
X134182236Y-88786351D02*
X134148903Y-88710161D01*
X134148903Y-88710161D02*
X134148903Y-88672066D01*
X134148903Y-88672066D02*
X134182236Y-88595875D01*
X134182236Y-88595875D02*
X134215570Y-88557780D01*
X134215570Y-88557780D02*
X134282236Y-88519685D01*
X134282236Y-88519685D02*
X134415570Y-88519685D01*
X134415570Y-88519685D02*
X134482236Y-88557780D01*
X134482236Y-88557780D02*
X134515570Y-88595875D01*
X134515570Y-88595875D02*
X134548903Y-88672066D01*
X134548903Y-88672066D02*
X134548903Y-88710161D01*
X134548903Y-88710161D02*
X134515570Y-88786351D01*
X134515570Y-88786351D02*
X134482236Y-88824447D01*
X134482236Y-88824447D02*
X134415570Y-88862542D01*
X134415570Y-88862542D02*
X134282236Y-88862542D01*
X134282236Y-88862542D02*
X134215570Y-88900637D01*
X134215570Y-88900637D02*
X134182236Y-88938732D01*
X134182236Y-88938732D02*
X134148903Y-89014923D01*
X134148903Y-89014923D02*
X134148903Y-89167304D01*
X134148903Y-89167304D02*
X134182236Y-89243494D01*
X134182236Y-89243494D02*
X134215570Y-89281590D01*
X134215570Y-89281590D02*
X134282236Y-89319685D01*
X134282236Y-89319685D02*
X134415570Y-89319685D01*
X134415570Y-89319685D02*
X134482236Y-89281590D01*
X134482236Y-89281590D02*
X134515570Y-89243494D01*
X134515570Y-89243494D02*
X134548903Y-89167304D01*
X134548903Y-89167304D02*
X134548903Y-89014923D01*
X134548903Y-89014923D02*
X134515570Y-88938732D01*
X134515570Y-88938732D02*
X134482236Y-88900637D01*
X134482236Y-88900637D02*
X134415570Y-88862542D01*
X134782237Y-89624447D02*
X134815570Y-89586351D01*
X134815570Y-89586351D02*
X134882237Y-89472066D01*
X134882237Y-89472066D02*
X134915570Y-89395875D01*
X134915570Y-89395875D02*
X134948903Y-89281590D01*
X134948903Y-89281590D02*
X134982237Y-89091113D01*
X134982237Y-89091113D02*
X134982237Y-88938732D01*
X134982237Y-88938732D02*
X134948903Y-88748256D01*
X134948903Y-88748256D02*
X134915570Y-88633970D01*
X134915570Y-88633970D02*
X134882237Y-88557780D01*
X134882237Y-88557780D02*
X134815570Y-88443494D01*
X134815570Y-88443494D02*
X134782237Y-88405399D01*
X125248902Y-90607640D02*
X125248902Y-89807640D01*
X125248902Y-89807640D02*
X125515569Y-89807640D01*
X125515569Y-89807640D02*
X125582236Y-89845735D01*
X125582236Y-89845735D02*
X125615569Y-89883830D01*
X125615569Y-89883830D02*
X125648902Y-89960021D01*
X125648902Y-89960021D02*
X125648902Y-90074306D01*
X125648902Y-90074306D02*
X125615569Y-90150497D01*
X125615569Y-90150497D02*
X125582236Y-90188592D01*
X125582236Y-90188592D02*
X125515569Y-90226687D01*
X125515569Y-90226687D02*
X125248902Y-90226687D01*
X125948902Y-90607640D02*
X125948902Y-90074306D01*
X125948902Y-90226687D02*
X125982236Y-90150497D01*
X125982236Y-90150497D02*
X126015569Y-90112402D01*
X126015569Y-90112402D02*
X126082236Y-90074306D01*
X126082236Y-90074306D02*
X126148902Y-90074306D01*
X126682235Y-90607640D02*
X126682235Y-90188592D01*
X126682235Y-90188592D02*
X126648902Y-90112402D01*
X126648902Y-90112402D02*
X126582235Y-90074306D01*
X126582235Y-90074306D02*
X126448902Y-90074306D01*
X126448902Y-90074306D02*
X126382235Y-90112402D01*
X126682235Y-90569545D02*
X126615569Y-90607640D01*
X126615569Y-90607640D02*
X126448902Y-90607640D01*
X126448902Y-90607640D02*
X126382235Y-90569545D01*
X126382235Y-90569545D02*
X126348902Y-90493354D01*
X126348902Y-90493354D02*
X126348902Y-90417164D01*
X126348902Y-90417164D02*
X126382235Y-90340973D01*
X126382235Y-90340973D02*
X126448902Y-90302878D01*
X126448902Y-90302878D02*
X126615569Y-90302878D01*
X126615569Y-90302878D02*
X126682235Y-90264783D01*
X127015568Y-90074306D02*
X127015568Y-90760021D01*
X127015568Y-90760021D02*
X126982235Y-90836211D01*
X126982235Y-90836211D02*
X126915568Y-90874306D01*
X126915568Y-90874306D02*
X126882235Y-90874306D01*
X127015568Y-89807640D02*
X126982235Y-89845735D01*
X126982235Y-89845735D02*
X127015568Y-89883830D01*
X127015568Y-89883830D02*
X127048902Y-89845735D01*
X127048902Y-89845735D02*
X127015568Y-89807640D01*
X127015568Y-89807640D02*
X127015568Y-89883830D01*
X127282235Y-90074306D02*
X127415568Y-90607640D01*
X127415568Y-90607640D02*
X127548901Y-90226687D01*
X127548901Y-90226687D02*
X127682235Y-90607640D01*
X127682235Y-90607640D02*
X127815568Y-90074306D01*
X128382234Y-90607640D02*
X128382234Y-90188592D01*
X128382234Y-90188592D02*
X128348901Y-90112402D01*
X128348901Y-90112402D02*
X128282234Y-90074306D01*
X128282234Y-90074306D02*
X128148901Y-90074306D01*
X128148901Y-90074306D02*
X128082234Y-90112402D01*
X128382234Y-90569545D02*
X128315568Y-90607640D01*
X128315568Y-90607640D02*
X128148901Y-90607640D01*
X128148901Y-90607640D02*
X128082234Y-90569545D01*
X128082234Y-90569545D02*
X128048901Y-90493354D01*
X128048901Y-90493354D02*
X128048901Y-90417164D01*
X128048901Y-90417164D02*
X128082234Y-90340973D01*
X128082234Y-90340973D02*
X128148901Y-90302878D01*
X128148901Y-90302878D02*
X128315568Y-90302878D01*
X128315568Y-90302878D02*
X128382234Y-90264783D01*
X128815567Y-90607640D02*
X128748901Y-90569545D01*
X128748901Y-90569545D02*
X128715567Y-90493354D01*
X128715567Y-90493354D02*
X128715567Y-89807640D01*
X129815567Y-90912402D02*
X129782234Y-90874306D01*
X129782234Y-90874306D02*
X129715567Y-90760021D01*
X129715567Y-90760021D02*
X129682234Y-90683830D01*
X129682234Y-90683830D02*
X129648901Y-90569545D01*
X129648901Y-90569545D02*
X129615567Y-90379068D01*
X129615567Y-90379068D02*
X129615567Y-90226687D01*
X129615567Y-90226687D02*
X129648901Y-90036211D01*
X129648901Y-90036211D02*
X129682234Y-89921925D01*
X129682234Y-89921925D02*
X129715567Y-89845735D01*
X129715567Y-89845735D02*
X129782234Y-89731449D01*
X129782234Y-89731449D02*
X129815567Y-89693354D01*
X130448901Y-90607640D02*
X130048901Y-90607640D01*
X130248901Y-90607640D02*
X130248901Y-89807640D01*
X130248901Y-89807640D02*
X130182234Y-89921925D01*
X130182234Y-89921925D02*
X130115568Y-89998116D01*
X130115568Y-89998116D02*
X130048901Y-90036211D01*
X131115568Y-90607640D02*
X130715568Y-90607640D01*
X130915568Y-90607640D02*
X130915568Y-89807640D01*
X130915568Y-89807640D02*
X130848901Y-89921925D01*
X130848901Y-89921925D02*
X130782235Y-89998116D01*
X130782235Y-89998116D02*
X130715568Y-90036211D01*
X131348902Y-89807640D02*
X131782235Y-89807640D01*
X131782235Y-89807640D02*
X131548902Y-90112402D01*
X131548902Y-90112402D02*
X131648902Y-90112402D01*
X131648902Y-90112402D02*
X131715568Y-90150497D01*
X131715568Y-90150497D02*
X131748902Y-90188592D01*
X131748902Y-90188592D02*
X131782235Y-90264783D01*
X131782235Y-90264783D02*
X131782235Y-90455259D01*
X131782235Y-90455259D02*
X131748902Y-90531449D01*
X131748902Y-90531449D02*
X131715568Y-90569545D01*
X131715568Y-90569545D02*
X131648902Y-90607640D01*
X131648902Y-90607640D02*
X131448902Y-90607640D01*
X131448902Y-90607640D02*
X131382235Y-90569545D01*
X131382235Y-90569545D02*
X131348902Y-90531449D01*
X132382235Y-90074306D02*
X132382235Y-90607640D01*
X132215569Y-89769545D02*
X132048902Y-90340973D01*
X132048902Y-90340973D02*
X132482235Y-90340973D01*
X132715569Y-89883830D02*
X132748902Y-89845735D01*
X132748902Y-89845735D02*
X132815569Y-89807640D01*
X132815569Y-89807640D02*
X132982236Y-89807640D01*
X132982236Y-89807640D02*
X133048902Y-89845735D01*
X133048902Y-89845735D02*
X133082236Y-89883830D01*
X133082236Y-89883830D02*
X133115569Y-89960021D01*
X133115569Y-89960021D02*
X133115569Y-90036211D01*
X133115569Y-90036211D02*
X133082236Y-90150497D01*
X133082236Y-90150497D02*
X132682236Y-90607640D01*
X132682236Y-90607640D02*
X133115569Y-90607640D01*
X133348903Y-89807640D02*
X133815569Y-89807640D01*
X133815569Y-89807640D02*
X133515569Y-90607640D01*
X134015570Y-89807640D02*
X134482236Y-89807640D01*
X134482236Y-89807640D02*
X134182236Y-90607640D01*
X134682237Y-90912402D02*
X134715570Y-90874306D01*
X134715570Y-90874306D02*
X134782237Y-90760021D01*
X134782237Y-90760021D02*
X134815570Y-90683830D01*
X134815570Y-90683830D02*
X134848903Y-90569545D01*
X134848903Y-90569545D02*
X134882237Y-90379068D01*
X134882237Y-90379068D02*
X134882237Y-90226687D01*
X134882237Y-90226687D02*
X134848903Y-90036211D01*
X134848903Y-90036211D02*
X134815570Y-89921925D01*
X134815570Y-89921925D02*
X134782237Y-89845735D01*
X134782237Y-89845735D02*
X134715570Y-89731449D01*
X134715570Y-89731449D02*
X134682237Y-89693354D01*
X125215569Y-91667023D02*
X125548902Y-91667023D01*
X125148902Y-91895595D02*
X125382236Y-91095595D01*
X125382236Y-91095595D02*
X125615569Y-91895595D01*
X125848902Y-91895595D02*
X125848902Y-91362261D01*
X125848902Y-91438452D02*
X125882236Y-91400357D01*
X125882236Y-91400357D02*
X125948902Y-91362261D01*
X125948902Y-91362261D02*
X126048902Y-91362261D01*
X126048902Y-91362261D02*
X126115569Y-91400357D01*
X126115569Y-91400357D02*
X126148902Y-91476547D01*
X126148902Y-91476547D02*
X126148902Y-91895595D01*
X126148902Y-91476547D02*
X126182236Y-91400357D01*
X126182236Y-91400357D02*
X126248902Y-91362261D01*
X126248902Y-91362261D02*
X126348902Y-91362261D01*
X126348902Y-91362261D02*
X126415569Y-91400357D01*
X126415569Y-91400357D02*
X126448902Y-91476547D01*
X126448902Y-91476547D02*
X126448902Y-91895595D01*
X126782235Y-91362261D02*
X126782235Y-92162261D01*
X126782235Y-91400357D02*
X126848902Y-91362261D01*
X126848902Y-91362261D02*
X126982235Y-91362261D01*
X126982235Y-91362261D02*
X127048902Y-91400357D01*
X127048902Y-91400357D02*
X127082235Y-91438452D01*
X127082235Y-91438452D02*
X127115569Y-91514642D01*
X127115569Y-91514642D02*
X127115569Y-91743214D01*
X127115569Y-91743214D02*
X127082235Y-91819404D01*
X127082235Y-91819404D02*
X127048902Y-91857500D01*
X127048902Y-91857500D02*
X126982235Y-91895595D01*
X126982235Y-91895595D02*
X126848902Y-91895595D01*
X126848902Y-91895595D02*
X126782235Y-91857500D01*
X127515568Y-91895595D02*
X127448902Y-91857500D01*
X127448902Y-91857500D02*
X127415568Y-91781309D01*
X127415568Y-91781309D02*
X127415568Y-91095595D01*
X127782235Y-91895595D02*
X127782235Y-91362261D01*
X127782235Y-91095595D02*
X127748902Y-91133690D01*
X127748902Y-91133690D02*
X127782235Y-91171785D01*
X127782235Y-91171785D02*
X127815569Y-91133690D01*
X127815569Y-91133690D02*
X127782235Y-91095595D01*
X127782235Y-91095595D02*
X127782235Y-91171785D01*
X128015568Y-91362261D02*
X128282235Y-91362261D01*
X128115568Y-91895595D02*
X128115568Y-91209880D01*
X128115568Y-91209880D02*
X128148902Y-91133690D01*
X128148902Y-91133690D02*
X128215568Y-91095595D01*
X128215568Y-91095595D02*
X128282235Y-91095595D01*
X128515568Y-91895595D02*
X128515568Y-91362261D01*
X128515568Y-91095595D02*
X128482235Y-91133690D01*
X128482235Y-91133690D02*
X128515568Y-91171785D01*
X128515568Y-91171785D02*
X128548902Y-91133690D01*
X128548902Y-91133690D02*
X128515568Y-91095595D01*
X128515568Y-91095595D02*
X128515568Y-91171785D01*
X129115568Y-91857500D02*
X129048901Y-91895595D01*
X129048901Y-91895595D02*
X128915568Y-91895595D01*
X128915568Y-91895595D02*
X128848901Y-91857500D01*
X128848901Y-91857500D02*
X128815568Y-91781309D01*
X128815568Y-91781309D02*
X128815568Y-91476547D01*
X128815568Y-91476547D02*
X128848901Y-91400357D01*
X128848901Y-91400357D02*
X128915568Y-91362261D01*
X128915568Y-91362261D02*
X129048901Y-91362261D01*
X129048901Y-91362261D02*
X129115568Y-91400357D01*
X129115568Y-91400357D02*
X129148901Y-91476547D01*
X129148901Y-91476547D02*
X129148901Y-91552738D01*
X129148901Y-91552738D02*
X128815568Y-91628928D01*
X129448901Y-91895595D02*
X129448901Y-91362261D01*
X129448901Y-91514642D02*
X129482235Y-91438452D01*
X129482235Y-91438452D02*
X129515568Y-91400357D01*
X129515568Y-91400357D02*
X129582235Y-91362261D01*
X129582235Y-91362261D02*
X129648901Y-91362261D01*
X130815567Y-91819404D02*
X130782234Y-91857500D01*
X130782234Y-91857500D02*
X130682234Y-91895595D01*
X130682234Y-91895595D02*
X130615567Y-91895595D01*
X130615567Y-91895595D02*
X130515567Y-91857500D01*
X130515567Y-91857500D02*
X130448901Y-91781309D01*
X130448901Y-91781309D02*
X130415567Y-91705119D01*
X130415567Y-91705119D02*
X130382234Y-91552738D01*
X130382234Y-91552738D02*
X130382234Y-91438452D01*
X130382234Y-91438452D02*
X130415567Y-91286071D01*
X130415567Y-91286071D02*
X130448901Y-91209880D01*
X130448901Y-91209880D02*
X130515567Y-91133690D01*
X130515567Y-91133690D02*
X130615567Y-91095595D01*
X130615567Y-91095595D02*
X130682234Y-91095595D01*
X130682234Y-91095595D02*
X130782234Y-91133690D01*
X130782234Y-91133690D02*
X130815567Y-91171785D01*
X131115567Y-91895595D02*
X131115567Y-91362261D01*
X131115567Y-91095595D02*
X131082234Y-91133690D01*
X131082234Y-91133690D02*
X131115567Y-91171785D01*
X131115567Y-91171785D02*
X131148901Y-91133690D01*
X131148901Y-91133690D02*
X131115567Y-91095595D01*
X131115567Y-91095595D02*
X131115567Y-91171785D01*
X131448900Y-91895595D02*
X131448900Y-91362261D01*
X131448900Y-91514642D02*
X131482234Y-91438452D01*
X131482234Y-91438452D02*
X131515567Y-91400357D01*
X131515567Y-91400357D02*
X131582234Y-91362261D01*
X131582234Y-91362261D02*
X131648900Y-91362261D01*
X132182233Y-91857500D02*
X132115567Y-91895595D01*
X132115567Y-91895595D02*
X131982233Y-91895595D01*
X131982233Y-91895595D02*
X131915567Y-91857500D01*
X131915567Y-91857500D02*
X131882233Y-91819404D01*
X131882233Y-91819404D02*
X131848900Y-91743214D01*
X131848900Y-91743214D02*
X131848900Y-91514642D01*
X131848900Y-91514642D02*
X131882233Y-91438452D01*
X131882233Y-91438452D02*
X131915567Y-91400357D01*
X131915567Y-91400357D02*
X131982233Y-91362261D01*
X131982233Y-91362261D02*
X132115567Y-91362261D01*
X132115567Y-91362261D02*
X132182233Y-91400357D01*
X132782233Y-91362261D02*
X132782233Y-91895595D01*
X132482233Y-91362261D02*
X132482233Y-91781309D01*
X132482233Y-91781309D02*
X132515567Y-91857500D01*
X132515567Y-91857500D02*
X132582233Y-91895595D01*
X132582233Y-91895595D02*
X132682233Y-91895595D01*
X132682233Y-91895595D02*
X132748900Y-91857500D01*
X132748900Y-91857500D02*
X132782233Y-91819404D01*
X133115566Y-91895595D02*
X133115566Y-91362261D01*
X133115566Y-91095595D02*
X133082233Y-91133690D01*
X133082233Y-91133690D02*
X133115566Y-91171785D01*
X133115566Y-91171785D02*
X133148900Y-91133690D01*
X133148900Y-91133690D02*
X133115566Y-91095595D01*
X133115566Y-91095595D02*
X133115566Y-91171785D01*
X133348899Y-91362261D02*
X133615566Y-91362261D01*
X133448899Y-91095595D02*
X133448899Y-91781309D01*
X133448899Y-91781309D02*
X133482233Y-91857500D01*
X133482233Y-91857500D02*
X133548899Y-91895595D01*
X133548899Y-91895595D02*
X133615566Y-91895595D01*
D11*
X102494819Y-52008094D02*
X101494819Y-52008094D01*
X101494819Y-52008094D02*
X101494819Y-51769999D01*
X101494819Y-51769999D02*
X101542438Y-51627142D01*
X101542438Y-51627142D02*
X101637676Y-51531904D01*
X101637676Y-51531904D02*
X101732914Y-51484285D01*
X101732914Y-51484285D02*
X101923390Y-51436666D01*
X101923390Y-51436666D02*
X102066247Y-51436666D01*
X102066247Y-51436666D02*
X102256723Y-51484285D01*
X102256723Y-51484285D02*
X102351961Y-51531904D01*
X102351961Y-51531904D02*
X102447200Y-51627142D01*
X102447200Y-51627142D02*
X102494819Y-51769999D01*
X102494819Y-51769999D02*
X102494819Y-52008094D01*
X102494819Y-50484285D02*
X102494819Y-51055713D01*
X102494819Y-50769999D02*
X101494819Y-50769999D01*
X101494819Y-50769999D02*
X101637676Y-50865237D01*
X101637676Y-50865237D02*
X101732914Y-50960475D01*
X101732914Y-50960475D02*
X101780533Y-51055713D01*
X155357142Y-61084819D02*
X155023809Y-60608628D01*
X154785714Y-61084819D02*
X154785714Y-60084819D01*
X154785714Y-60084819D02*
X155166666Y-60084819D01*
X155166666Y-60084819D02*
X155261904Y-60132438D01*
X155261904Y-60132438D02*
X155309523Y-60180057D01*
X155309523Y-60180057D02*
X155357142Y-60275295D01*
X155357142Y-60275295D02*
X155357142Y-60418152D01*
X155357142Y-60418152D02*
X155309523Y-60513390D01*
X155309523Y-60513390D02*
X155261904Y-60561009D01*
X155261904Y-60561009D02*
X155166666Y-60608628D01*
X155166666Y-60608628D02*
X154785714Y-60608628D01*
X156309523Y-61084819D02*
X155738095Y-61084819D01*
X156023809Y-61084819D02*
X156023809Y-60084819D01*
X156023809Y-60084819D02*
X155928571Y-60227676D01*
X155928571Y-60227676D02*
X155833333Y-60322914D01*
X155833333Y-60322914D02*
X155738095Y-60370533D01*
X157261904Y-61084819D02*
X156690476Y-61084819D01*
X156976190Y-61084819D02*
X156976190Y-60084819D01*
X156976190Y-60084819D02*
X156880952Y-60227676D01*
X156880952Y-60227676D02*
X156785714Y-60322914D01*
X156785714Y-60322914D02*
X156690476Y-60370533D01*
X103833333Y-86454819D02*
X103500000Y-85978628D01*
X103261905Y-86454819D02*
X103261905Y-85454819D01*
X103261905Y-85454819D02*
X103642857Y-85454819D01*
X103642857Y-85454819D02*
X103738095Y-85502438D01*
X103738095Y-85502438D02*
X103785714Y-85550057D01*
X103785714Y-85550057D02*
X103833333Y-85645295D01*
X103833333Y-85645295D02*
X103833333Y-85788152D01*
X103833333Y-85788152D02*
X103785714Y-85883390D01*
X103785714Y-85883390D02*
X103738095Y-85931009D01*
X103738095Y-85931009D02*
X103642857Y-85978628D01*
X103642857Y-85978628D02*
X103261905Y-85978628D01*
X104214286Y-85550057D02*
X104261905Y-85502438D01*
X104261905Y-85502438D02*
X104357143Y-85454819D01*
X104357143Y-85454819D02*
X104595238Y-85454819D01*
X104595238Y-85454819D02*
X104690476Y-85502438D01*
X104690476Y-85502438D02*
X104738095Y-85550057D01*
X104738095Y-85550057D02*
X104785714Y-85645295D01*
X104785714Y-85645295D02*
X104785714Y-85740533D01*
X104785714Y-85740533D02*
X104738095Y-85883390D01*
X104738095Y-85883390D02*
X104166667Y-86454819D01*
X104166667Y-86454819D02*
X104785714Y-86454819D01*
X156833333Y-74359580D02*
X156785714Y-74407200D01*
X156785714Y-74407200D02*
X156642857Y-74454819D01*
X156642857Y-74454819D02*
X156547619Y-74454819D01*
X156547619Y-74454819D02*
X156404762Y-74407200D01*
X156404762Y-74407200D02*
X156309524Y-74311961D01*
X156309524Y-74311961D02*
X156261905Y-74216723D01*
X156261905Y-74216723D02*
X156214286Y-74026247D01*
X156214286Y-74026247D02*
X156214286Y-73883390D01*
X156214286Y-73883390D02*
X156261905Y-73692914D01*
X156261905Y-73692914D02*
X156309524Y-73597676D01*
X156309524Y-73597676D02*
X156404762Y-73502438D01*
X156404762Y-73502438D02*
X156547619Y-73454819D01*
X156547619Y-73454819D02*
X156642857Y-73454819D01*
X156642857Y-73454819D02*
X156785714Y-73502438D01*
X156785714Y-73502438D02*
X156833333Y-73550057D01*
X157690476Y-73454819D02*
X157500000Y-73454819D01*
X157500000Y-73454819D02*
X157404762Y-73502438D01*
X157404762Y-73502438D02*
X157357143Y-73550057D01*
X157357143Y-73550057D02*
X157261905Y-73692914D01*
X157261905Y-73692914D02*
X157214286Y-73883390D01*
X157214286Y-73883390D02*
X157214286Y-74264342D01*
X157214286Y-74264342D02*
X157261905Y-74359580D01*
X157261905Y-74359580D02*
X157309524Y-74407200D01*
X157309524Y-74407200D02*
X157404762Y-74454819D01*
X157404762Y-74454819D02*
X157595238Y-74454819D01*
X157595238Y-74454819D02*
X157690476Y-74407200D01*
X157690476Y-74407200D02*
X157738095Y-74359580D01*
X157738095Y-74359580D02*
X157785714Y-74264342D01*
X157785714Y-74264342D02*
X157785714Y-74026247D01*
X157785714Y-74026247D02*
X157738095Y-73931009D01*
X157738095Y-73931009D02*
X157690476Y-73883390D01*
X157690476Y-73883390D02*
X157595238Y-73835771D01*
X157595238Y-73835771D02*
X157404762Y-73835771D01*
X157404762Y-73835771D02*
X157309524Y-73883390D01*
X157309524Y-73883390D02*
X157261905Y-73931009D01*
X157261905Y-73931009D02*
X157214286Y-74026247D01*
X156833333Y-85454819D02*
X156500000Y-84978628D01*
X156261905Y-85454819D02*
X156261905Y-84454819D01*
X156261905Y-84454819D02*
X156642857Y-84454819D01*
X156642857Y-84454819D02*
X156738095Y-84502438D01*
X156738095Y-84502438D02*
X156785714Y-84550057D01*
X156785714Y-84550057D02*
X156833333Y-84645295D01*
X156833333Y-84645295D02*
X156833333Y-84788152D01*
X156833333Y-84788152D02*
X156785714Y-84883390D01*
X156785714Y-84883390D02*
X156738095Y-84931009D01*
X156738095Y-84931009D02*
X156642857Y-84978628D01*
X156642857Y-84978628D02*
X156261905Y-84978628D01*
X157166667Y-84454819D02*
X157833333Y-84454819D01*
X157833333Y-84454819D02*
X157404762Y-85454819D01*
X129753333Y-61454819D02*
X129420000Y-60978628D01*
X129181905Y-61454819D02*
X129181905Y-60454819D01*
X129181905Y-60454819D02*
X129562857Y-60454819D01*
X129562857Y-60454819D02*
X129658095Y-60502438D01*
X129658095Y-60502438D02*
X129705714Y-60550057D01*
X129705714Y-60550057D02*
X129753333Y-60645295D01*
X129753333Y-60645295D02*
X129753333Y-60788152D01*
X129753333Y-60788152D02*
X129705714Y-60883390D01*
X129705714Y-60883390D02*
X129658095Y-60931009D01*
X129658095Y-60931009D02*
X129562857Y-60978628D01*
X129562857Y-60978628D02*
X129181905Y-60978628D01*
X130229524Y-61454819D02*
X130420000Y-61454819D01*
X130420000Y-61454819D02*
X130515238Y-61407200D01*
X130515238Y-61407200D02*
X130562857Y-61359580D01*
X130562857Y-61359580D02*
X130658095Y-61216723D01*
X130658095Y-61216723D02*
X130705714Y-61026247D01*
X130705714Y-61026247D02*
X130705714Y-60645295D01*
X130705714Y-60645295D02*
X130658095Y-60550057D01*
X130658095Y-60550057D02*
X130610476Y-60502438D01*
X130610476Y-60502438D02*
X130515238Y-60454819D01*
X130515238Y-60454819D02*
X130324762Y-60454819D01*
X130324762Y-60454819D02*
X130229524Y-60502438D01*
X130229524Y-60502438D02*
X130181905Y-60550057D01*
X130181905Y-60550057D02*
X130134286Y-60645295D01*
X130134286Y-60645295D02*
X130134286Y-60883390D01*
X130134286Y-60883390D02*
X130181905Y-60978628D01*
X130181905Y-60978628D02*
X130229524Y-61026247D01*
X130229524Y-61026247D02*
X130324762Y-61073866D01*
X130324762Y-61073866D02*
X130515238Y-61073866D01*
X130515238Y-61073866D02*
X130610476Y-61026247D01*
X130610476Y-61026247D02*
X130658095Y-60978628D01*
X130658095Y-60978628D02*
X130705714Y-60883390D01*
X164738095Y-80074819D02*
X165309523Y-80074819D01*
X165023809Y-81074819D02*
X165023809Y-80074819D01*
X165642857Y-81074819D02*
X165642857Y-80074819D01*
X165642857Y-80074819D02*
X166023809Y-80074819D01*
X166023809Y-80074819D02*
X166119047Y-80122438D01*
X166119047Y-80122438D02*
X166166666Y-80170057D01*
X166166666Y-80170057D02*
X166214285Y-80265295D01*
X166214285Y-80265295D02*
X166214285Y-80408152D01*
X166214285Y-80408152D02*
X166166666Y-80503390D01*
X166166666Y-80503390D02*
X166119047Y-80551009D01*
X166119047Y-80551009D02*
X166023809Y-80598628D01*
X166023809Y-80598628D02*
X165642857Y-80598628D01*
X166595238Y-80170057D02*
X166642857Y-80122438D01*
X166642857Y-80122438D02*
X166738095Y-80074819D01*
X166738095Y-80074819D02*
X166976190Y-80074819D01*
X166976190Y-80074819D02*
X167071428Y-80122438D01*
X167071428Y-80122438D02*
X167119047Y-80170057D01*
X167119047Y-80170057D02*
X167166666Y-80265295D01*
X167166666Y-80265295D02*
X167166666Y-80360533D01*
X167166666Y-80360533D02*
X167119047Y-80503390D01*
X167119047Y-80503390D02*
X166547619Y-81074819D01*
X166547619Y-81074819D02*
X167166666Y-81074819D01*
X117833333Y-52454819D02*
X117500000Y-51978628D01*
X117261905Y-52454819D02*
X117261905Y-51454819D01*
X117261905Y-51454819D02*
X117642857Y-51454819D01*
X117642857Y-51454819D02*
X117738095Y-51502438D01*
X117738095Y-51502438D02*
X117785714Y-51550057D01*
X117785714Y-51550057D02*
X117833333Y-51645295D01*
X117833333Y-51645295D02*
X117833333Y-51788152D01*
X117833333Y-51788152D02*
X117785714Y-51883390D01*
X117785714Y-51883390D02*
X117738095Y-51931009D01*
X117738095Y-51931009D02*
X117642857Y-51978628D01*
X117642857Y-51978628D02*
X117261905Y-51978628D01*
X118404762Y-51883390D02*
X118309524Y-51835771D01*
X118309524Y-51835771D02*
X118261905Y-51788152D01*
X118261905Y-51788152D02*
X118214286Y-51692914D01*
X118214286Y-51692914D02*
X118214286Y-51645295D01*
X118214286Y-51645295D02*
X118261905Y-51550057D01*
X118261905Y-51550057D02*
X118309524Y-51502438D01*
X118309524Y-51502438D02*
X118404762Y-51454819D01*
X118404762Y-51454819D02*
X118595238Y-51454819D01*
X118595238Y-51454819D02*
X118690476Y-51502438D01*
X118690476Y-51502438D02*
X118738095Y-51550057D01*
X118738095Y-51550057D02*
X118785714Y-51645295D01*
X118785714Y-51645295D02*
X118785714Y-51692914D01*
X118785714Y-51692914D02*
X118738095Y-51788152D01*
X118738095Y-51788152D02*
X118690476Y-51835771D01*
X118690476Y-51835771D02*
X118595238Y-51883390D01*
X118595238Y-51883390D02*
X118404762Y-51883390D01*
X118404762Y-51883390D02*
X118309524Y-51931009D01*
X118309524Y-51931009D02*
X118261905Y-51978628D01*
X118261905Y-51978628D02*
X118214286Y-52073866D01*
X118214286Y-52073866D02*
X118214286Y-52264342D01*
X118214286Y-52264342D02*
X118261905Y-52359580D01*
X118261905Y-52359580D02*
X118309524Y-52407200D01*
X118309524Y-52407200D02*
X118404762Y-52454819D01*
X118404762Y-52454819D02*
X118595238Y-52454819D01*
X118595238Y-52454819D02*
X118690476Y-52407200D01*
X118690476Y-52407200D02*
X118738095Y-52359580D01*
X118738095Y-52359580D02*
X118785714Y-52264342D01*
X118785714Y-52264342D02*
X118785714Y-52073866D01*
X118785714Y-52073866D02*
X118738095Y-51978628D01*
X118738095Y-51978628D02*
X118690476Y-51931009D01*
X118690476Y-51931009D02*
X118595238Y-51883390D01*
X104738095Y-66954819D02*
X105309523Y-66954819D01*
X105023809Y-67954819D02*
X105023809Y-66954819D01*
X105642857Y-67954819D02*
X105642857Y-66954819D01*
X105642857Y-66954819D02*
X106023809Y-66954819D01*
X106023809Y-66954819D02*
X106119047Y-67002438D01*
X106119047Y-67002438D02*
X106166666Y-67050057D01*
X106166666Y-67050057D02*
X106214285Y-67145295D01*
X106214285Y-67145295D02*
X106214285Y-67288152D01*
X106214285Y-67288152D02*
X106166666Y-67383390D01*
X106166666Y-67383390D02*
X106119047Y-67431009D01*
X106119047Y-67431009D02*
X106023809Y-67478628D01*
X106023809Y-67478628D02*
X105642857Y-67478628D01*
X106547619Y-66954819D02*
X107166666Y-66954819D01*
X107166666Y-66954819D02*
X106833333Y-67335771D01*
X106833333Y-67335771D02*
X106976190Y-67335771D01*
X106976190Y-67335771D02*
X107071428Y-67383390D01*
X107071428Y-67383390D02*
X107119047Y-67431009D01*
X107119047Y-67431009D02*
X107166666Y-67526247D01*
X107166666Y-67526247D02*
X107166666Y-67764342D01*
X107166666Y-67764342D02*
X107119047Y-67859580D01*
X107119047Y-67859580D02*
X107071428Y-67907200D01*
X107071428Y-67907200D02*
X106976190Y-67954819D01*
X106976190Y-67954819D02*
X106690476Y-67954819D01*
X106690476Y-67954819D02*
X106595238Y-67907200D01*
X106595238Y-67907200D02*
X106547619Y-67859580D01*
X142991905Y-52494819D02*
X142991905Y-51494819D01*
X142991905Y-51494819D02*
X143230000Y-51494819D01*
X143230000Y-51494819D02*
X143372857Y-51542438D01*
X143372857Y-51542438D02*
X143468095Y-51637676D01*
X143468095Y-51637676D02*
X143515714Y-51732914D01*
X143515714Y-51732914D02*
X143563333Y-51923390D01*
X143563333Y-51923390D02*
X143563333Y-52066247D01*
X143563333Y-52066247D02*
X143515714Y-52256723D01*
X143515714Y-52256723D02*
X143468095Y-52351961D01*
X143468095Y-52351961D02*
X143372857Y-52447200D01*
X143372857Y-52447200D02*
X143230000Y-52494819D01*
X143230000Y-52494819D02*
X142991905Y-52494819D01*
X143944286Y-51590057D02*
X143991905Y-51542438D01*
X143991905Y-51542438D02*
X144087143Y-51494819D01*
X144087143Y-51494819D02*
X144325238Y-51494819D01*
X144325238Y-51494819D02*
X144420476Y-51542438D01*
X144420476Y-51542438D02*
X144468095Y-51590057D01*
X144468095Y-51590057D02*
X144515714Y-51685295D01*
X144515714Y-51685295D02*
X144515714Y-51780533D01*
X144515714Y-51780533D02*
X144468095Y-51923390D01*
X144468095Y-51923390D02*
X143896667Y-52494819D01*
X143896667Y-52494819D02*
X144515714Y-52494819D01*
X128833333Y-66859580D02*
X128785714Y-66907200D01*
X128785714Y-66907200D02*
X128642857Y-66954819D01*
X128642857Y-66954819D02*
X128547619Y-66954819D01*
X128547619Y-66954819D02*
X128404762Y-66907200D01*
X128404762Y-66907200D02*
X128309524Y-66811961D01*
X128309524Y-66811961D02*
X128261905Y-66716723D01*
X128261905Y-66716723D02*
X128214286Y-66526247D01*
X128214286Y-66526247D02*
X128214286Y-66383390D01*
X128214286Y-66383390D02*
X128261905Y-66192914D01*
X128261905Y-66192914D02*
X128309524Y-66097676D01*
X128309524Y-66097676D02*
X128404762Y-66002438D01*
X128404762Y-66002438D02*
X128547619Y-65954819D01*
X128547619Y-65954819D02*
X128642857Y-65954819D01*
X128642857Y-65954819D02*
X128785714Y-66002438D01*
X128785714Y-66002438D02*
X128833333Y-66050057D01*
X129690476Y-66288152D02*
X129690476Y-66954819D01*
X129452381Y-65907200D02*
X129214286Y-66621485D01*
X129214286Y-66621485D02*
X129833333Y-66621485D01*
X119738095Y-93954819D02*
X120309523Y-93954819D01*
X120023809Y-94954819D02*
X120023809Y-93954819D01*
X120642857Y-94954819D02*
X120642857Y-93954819D01*
X120642857Y-93954819D02*
X121023809Y-93954819D01*
X121023809Y-93954819D02*
X121119047Y-94002438D01*
X121119047Y-94002438D02*
X121166666Y-94050057D01*
X121166666Y-94050057D02*
X121214285Y-94145295D01*
X121214285Y-94145295D02*
X121214285Y-94288152D01*
X121214285Y-94288152D02*
X121166666Y-94383390D01*
X121166666Y-94383390D02*
X121119047Y-94431009D01*
X121119047Y-94431009D02*
X121023809Y-94478628D01*
X121023809Y-94478628D02*
X120642857Y-94478628D01*
X122166666Y-94954819D02*
X121595238Y-94954819D01*
X121880952Y-94954819D02*
X121880952Y-93954819D01*
X121880952Y-93954819D02*
X121785714Y-94097676D01*
X121785714Y-94097676D02*
X121690476Y-94192914D01*
X121690476Y-94192914D02*
X121595238Y-94240533D01*
X137833333Y-66609580D02*
X137785714Y-66657200D01*
X137785714Y-66657200D02*
X137642857Y-66704819D01*
X137642857Y-66704819D02*
X137547619Y-66704819D01*
X137547619Y-66704819D02*
X137404762Y-66657200D01*
X137404762Y-66657200D02*
X137309524Y-66561961D01*
X137309524Y-66561961D02*
X137261905Y-66466723D01*
X137261905Y-66466723D02*
X137214286Y-66276247D01*
X137214286Y-66276247D02*
X137214286Y-66133390D01*
X137214286Y-66133390D02*
X137261905Y-65942914D01*
X137261905Y-65942914D02*
X137309524Y-65847676D01*
X137309524Y-65847676D02*
X137404762Y-65752438D01*
X137404762Y-65752438D02*
X137547619Y-65704819D01*
X137547619Y-65704819D02*
X137642857Y-65704819D01*
X137642857Y-65704819D02*
X137785714Y-65752438D01*
X137785714Y-65752438D02*
X137833333Y-65800057D01*
X138214286Y-65800057D02*
X138261905Y-65752438D01*
X138261905Y-65752438D02*
X138357143Y-65704819D01*
X138357143Y-65704819D02*
X138595238Y-65704819D01*
X138595238Y-65704819D02*
X138690476Y-65752438D01*
X138690476Y-65752438D02*
X138738095Y-65800057D01*
X138738095Y-65800057D02*
X138785714Y-65895295D01*
X138785714Y-65895295D02*
X138785714Y-65990533D01*
X138785714Y-65990533D02*
X138738095Y-66133390D01*
X138738095Y-66133390D02*
X138166667Y-66704819D01*
X138166667Y-66704819D02*
X138785714Y-66704819D01*
X119243095Y-71724819D02*
X119243095Y-72534342D01*
X119243095Y-72534342D02*
X119290714Y-72629580D01*
X119290714Y-72629580D02*
X119338333Y-72677200D01*
X119338333Y-72677200D02*
X119433571Y-72724819D01*
X119433571Y-72724819D02*
X119624047Y-72724819D01*
X119624047Y-72724819D02*
X119719285Y-72677200D01*
X119719285Y-72677200D02*
X119766904Y-72629580D01*
X119766904Y-72629580D02*
X119814523Y-72534342D01*
X119814523Y-72534342D02*
X119814523Y-71724819D01*
X120195476Y-71724819D02*
X120814523Y-71724819D01*
X120814523Y-71724819D02*
X120481190Y-72105771D01*
X120481190Y-72105771D02*
X120624047Y-72105771D01*
X120624047Y-72105771D02*
X120719285Y-72153390D01*
X120719285Y-72153390D02*
X120766904Y-72201009D01*
X120766904Y-72201009D02*
X120814523Y-72296247D01*
X120814523Y-72296247D02*
X120814523Y-72534342D01*
X120814523Y-72534342D02*
X120766904Y-72629580D01*
X120766904Y-72629580D02*
X120719285Y-72677200D01*
X120719285Y-72677200D02*
X120624047Y-72724819D01*
X120624047Y-72724819D02*
X120338333Y-72724819D01*
X120338333Y-72724819D02*
X120243095Y-72677200D01*
X120243095Y-72677200D02*
X120195476Y-72629580D01*
X107833333Y-86454819D02*
X107500000Y-85978628D01*
X107261905Y-86454819D02*
X107261905Y-85454819D01*
X107261905Y-85454819D02*
X107642857Y-85454819D01*
X107642857Y-85454819D02*
X107738095Y-85502438D01*
X107738095Y-85502438D02*
X107785714Y-85550057D01*
X107785714Y-85550057D02*
X107833333Y-85645295D01*
X107833333Y-85645295D02*
X107833333Y-85788152D01*
X107833333Y-85788152D02*
X107785714Y-85883390D01*
X107785714Y-85883390D02*
X107738095Y-85931009D01*
X107738095Y-85931009D02*
X107642857Y-85978628D01*
X107642857Y-85978628D02*
X107261905Y-85978628D01*
X108785714Y-86454819D02*
X108214286Y-86454819D01*
X108500000Y-86454819D02*
X108500000Y-85454819D01*
X108500000Y-85454819D02*
X108404762Y-85597676D01*
X108404762Y-85597676D02*
X108309524Y-85692914D01*
X108309524Y-85692914D02*
X108214286Y-85740533D01*
X155357142Y-69824819D02*
X155023809Y-69348628D01*
X154785714Y-69824819D02*
X154785714Y-68824819D01*
X154785714Y-68824819D02*
X155166666Y-68824819D01*
X155166666Y-68824819D02*
X155261904Y-68872438D01*
X155261904Y-68872438D02*
X155309523Y-68920057D01*
X155309523Y-68920057D02*
X155357142Y-69015295D01*
X155357142Y-69015295D02*
X155357142Y-69158152D01*
X155357142Y-69158152D02*
X155309523Y-69253390D01*
X155309523Y-69253390D02*
X155261904Y-69301009D01*
X155261904Y-69301009D02*
X155166666Y-69348628D01*
X155166666Y-69348628D02*
X154785714Y-69348628D01*
X156309523Y-69824819D02*
X155738095Y-69824819D01*
X156023809Y-69824819D02*
X156023809Y-68824819D01*
X156023809Y-68824819D02*
X155928571Y-68967676D01*
X155928571Y-68967676D02*
X155833333Y-69062914D01*
X155833333Y-69062914D02*
X155738095Y-69110533D01*
X156690476Y-68920057D02*
X156738095Y-68872438D01*
X156738095Y-68872438D02*
X156833333Y-68824819D01*
X156833333Y-68824819D02*
X157071428Y-68824819D01*
X157071428Y-68824819D02*
X157166666Y-68872438D01*
X157166666Y-68872438D02*
X157214285Y-68920057D01*
X157214285Y-68920057D02*
X157261904Y-69015295D01*
X157261904Y-69015295D02*
X157261904Y-69110533D01*
X157261904Y-69110533D02*
X157214285Y-69253390D01*
X157214285Y-69253390D02*
X156642857Y-69824819D01*
X156642857Y-69824819D02*
X157261904Y-69824819D01*
X119583333Y-84959580D02*
X119535714Y-85007200D01*
X119535714Y-85007200D02*
X119392857Y-85054819D01*
X119392857Y-85054819D02*
X119297619Y-85054819D01*
X119297619Y-85054819D02*
X119154762Y-85007200D01*
X119154762Y-85007200D02*
X119059524Y-84911961D01*
X119059524Y-84911961D02*
X119011905Y-84816723D01*
X119011905Y-84816723D02*
X118964286Y-84626247D01*
X118964286Y-84626247D02*
X118964286Y-84483390D01*
X118964286Y-84483390D02*
X119011905Y-84292914D01*
X119011905Y-84292914D02*
X119059524Y-84197676D01*
X119059524Y-84197676D02*
X119154762Y-84102438D01*
X119154762Y-84102438D02*
X119297619Y-84054819D01*
X119297619Y-84054819D02*
X119392857Y-84054819D01*
X119392857Y-84054819D02*
X119535714Y-84102438D01*
X119535714Y-84102438D02*
X119583333Y-84150057D01*
X120488095Y-84054819D02*
X120011905Y-84054819D01*
X120011905Y-84054819D02*
X119964286Y-84531009D01*
X119964286Y-84531009D02*
X120011905Y-84483390D01*
X120011905Y-84483390D02*
X120107143Y-84435771D01*
X120107143Y-84435771D02*
X120345238Y-84435771D01*
X120345238Y-84435771D02*
X120440476Y-84483390D01*
X120440476Y-84483390D02*
X120488095Y-84531009D01*
X120488095Y-84531009D02*
X120535714Y-84626247D01*
X120535714Y-84626247D02*
X120535714Y-84864342D01*
X120535714Y-84864342D02*
X120488095Y-84959580D01*
X120488095Y-84959580D02*
X120440476Y-85007200D01*
X120440476Y-85007200D02*
X120345238Y-85054819D01*
X120345238Y-85054819D02*
X120107143Y-85054819D01*
X120107143Y-85054819D02*
X120011905Y-85007200D01*
X120011905Y-85007200D02*
X119964286Y-84959580D01*
X151761905Y-52494819D02*
X151761905Y-51494819D01*
X151761905Y-51494819D02*
X152000000Y-51494819D01*
X152000000Y-51494819D02*
X152142857Y-51542438D01*
X152142857Y-51542438D02*
X152238095Y-51637676D01*
X152238095Y-51637676D02*
X152285714Y-51732914D01*
X152285714Y-51732914D02*
X152333333Y-51923390D01*
X152333333Y-51923390D02*
X152333333Y-52066247D01*
X152333333Y-52066247D02*
X152285714Y-52256723D01*
X152285714Y-52256723D02*
X152238095Y-52351961D01*
X152238095Y-52351961D02*
X152142857Y-52447200D01*
X152142857Y-52447200D02*
X152000000Y-52494819D01*
X152000000Y-52494819D02*
X151761905Y-52494819D01*
X152666667Y-51494819D02*
X153285714Y-51494819D01*
X153285714Y-51494819D02*
X152952381Y-51875771D01*
X152952381Y-51875771D02*
X153095238Y-51875771D01*
X153095238Y-51875771D02*
X153190476Y-51923390D01*
X153190476Y-51923390D02*
X153238095Y-51971009D01*
X153238095Y-51971009D02*
X153285714Y-52066247D01*
X153285714Y-52066247D02*
X153285714Y-52304342D01*
X153285714Y-52304342D02*
X153238095Y-52399580D01*
X153238095Y-52399580D02*
X153190476Y-52447200D01*
X153190476Y-52447200D02*
X153095238Y-52494819D01*
X153095238Y-52494819D02*
X152809524Y-52494819D01*
X152809524Y-52494819D02*
X152714286Y-52447200D01*
X152714286Y-52447200D02*
X152666667Y-52399580D01*
X142833333Y-94454819D02*
X142500000Y-93978628D01*
X142261905Y-94454819D02*
X142261905Y-93454819D01*
X142261905Y-93454819D02*
X142642857Y-93454819D01*
X142642857Y-93454819D02*
X142738095Y-93502438D01*
X142738095Y-93502438D02*
X142785714Y-93550057D01*
X142785714Y-93550057D02*
X142833333Y-93645295D01*
X142833333Y-93645295D02*
X142833333Y-93788152D01*
X142833333Y-93788152D02*
X142785714Y-93883390D01*
X142785714Y-93883390D02*
X142738095Y-93931009D01*
X142738095Y-93931009D02*
X142642857Y-93978628D01*
X142642857Y-93978628D02*
X142261905Y-93978628D01*
X143738095Y-93454819D02*
X143261905Y-93454819D01*
X143261905Y-93454819D02*
X143214286Y-93931009D01*
X143214286Y-93931009D02*
X143261905Y-93883390D01*
X143261905Y-93883390D02*
X143357143Y-93835771D01*
X143357143Y-93835771D02*
X143595238Y-93835771D01*
X143595238Y-93835771D02*
X143690476Y-93883390D01*
X143690476Y-93883390D02*
X143738095Y-93931009D01*
X143738095Y-93931009D02*
X143785714Y-94026247D01*
X143785714Y-94026247D02*
X143785714Y-94264342D01*
X143785714Y-94264342D02*
X143738095Y-94359580D01*
X143738095Y-94359580D02*
X143690476Y-94407200D01*
X143690476Y-94407200D02*
X143595238Y-94454819D01*
X143595238Y-94454819D02*
X143357143Y-94454819D01*
X143357143Y-94454819D02*
X143261905Y-94407200D01*
X143261905Y-94407200D02*
X143214286Y-94359580D01*
X135833333Y-74359580D02*
X135785714Y-74407200D01*
X135785714Y-74407200D02*
X135642857Y-74454819D01*
X135642857Y-74454819D02*
X135547619Y-74454819D01*
X135547619Y-74454819D02*
X135404762Y-74407200D01*
X135404762Y-74407200D02*
X135309524Y-74311961D01*
X135309524Y-74311961D02*
X135261905Y-74216723D01*
X135261905Y-74216723D02*
X135214286Y-74026247D01*
X135214286Y-74026247D02*
X135214286Y-73883390D01*
X135214286Y-73883390D02*
X135261905Y-73692914D01*
X135261905Y-73692914D02*
X135309524Y-73597676D01*
X135309524Y-73597676D02*
X135404762Y-73502438D01*
X135404762Y-73502438D02*
X135547619Y-73454819D01*
X135547619Y-73454819D02*
X135642857Y-73454819D01*
X135642857Y-73454819D02*
X135785714Y-73502438D01*
X135785714Y-73502438D02*
X135833333Y-73550057D01*
X136166667Y-73454819D02*
X136785714Y-73454819D01*
X136785714Y-73454819D02*
X136452381Y-73835771D01*
X136452381Y-73835771D02*
X136595238Y-73835771D01*
X136595238Y-73835771D02*
X136690476Y-73883390D01*
X136690476Y-73883390D02*
X136738095Y-73931009D01*
X136738095Y-73931009D02*
X136785714Y-74026247D01*
X136785714Y-74026247D02*
X136785714Y-74264342D01*
X136785714Y-74264342D02*
X136738095Y-74359580D01*
X136738095Y-74359580D02*
X136690476Y-74407200D01*
X136690476Y-74407200D02*
X136595238Y-74454819D01*
X136595238Y-74454819D02*
X136309524Y-74454819D01*
X136309524Y-74454819D02*
X136214286Y-74407200D01*
X136214286Y-74407200D02*
X136166667Y-74359580D01*
X128833333Y-72454819D02*
X128500000Y-71978628D01*
X128261905Y-72454819D02*
X128261905Y-71454819D01*
X128261905Y-71454819D02*
X128642857Y-71454819D01*
X128642857Y-71454819D02*
X128738095Y-71502438D01*
X128738095Y-71502438D02*
X128785714Y-71550057D01*
X128785714Y-71550057D02*
X128833333Y-71645295D01*
X128833333Y-71645295D02*
X128833333Y-71788152D01*
X128833333Y-71788152D02*
X128785714Y-71883390D01*
X128785714Y-71883390D02*
X128738095Y-71931009D01*
X128738095Y-71931009D02*
X128642857Y-71978628D01*
X128642857Y-71978628D02*
X128261905Y-71978628D01*
X129690476Y-71788152D02*
X129690476Y-72454819D01*
X129452381Y-71407200D02*
X129214286Y-72121485D01*
X129214286Y-72121485D02*
X129833333Y-72121485D01*
X156833333Y-93954819D02*
X156500000Y-93478628D01*
X156261905Y-93954819D02*
X156261905Y-92954819D01*
X156261905Y-92954819D02*
X156642857Y-92954819D01*
X156642857Y-92954819D02*
X156738095Y-93002438D01*
X156738095Y-93002438D02*
X156785714Y-93050057D01*
X156785714Y-93050057D02*
X156833333Y-93145295D01*
X156833333Y-93145295D02*
X156833333Y-93288152D01*
X156833333Y-93288152D02*
X156785714Y-93383390D01*
X156785714Y-93383390D02*
X156738095Y-93431009D01*
X156738095Y-93431009D02*
X156642857Y-93478628D01*
X156642857Y-93478628D02*
X156261905Y-93478628D01*
X157690476Y-92954819D02*
X157500000Y-92954819D01*
X157500000Y-92954819D02*
X157404762Y-93002438D01*
X157404762Y-93002438D02*
X157357143Y-93050057D01*
X157357143Y-93050057D02*
X157261905Y-93192914D01*
X157261905Y-93192914D02*
X157214286Y-93383390D01*
X157214286Y-93383390D02*
X157214286Y-93764342D01*
X157214286Y-93764342D02*
X157261905Y-93859580D01*
X157261905Y-93859580D02*
X157309524Y-93907200D01*
X157309524Y-93907200D02*
X157404762Y-93954819D01*
X157404762Y-93954819D02*
X157595238Y-93954819D01*
X157595238Y-93954819D02*
X157690476Y-93907200D01*
X157690476Y-93907200D02*
X157738095Y-93859580D01*
X157738095Y-93859580D02*
X157785714Y-93764342D01*
X157785714Y-93764342D02*
X157785714Y-93526247D01*
X157785714Y-93526247D02*
X157738095Y-93431009D01*
X157738095Y-93431009D02*
X157690476Y-93383390D01*
X157690476Y-93383390D02*
X157595238Y-93335771D01*
X157595238Y-93335771D02*
X157404762Y-93335771D01*
X157404762Y-93335771D02*
X157309524Y-93383390D01*
X157309524Y-93383390D02*
X157261905Y-93431009D01*
X157261905Y-93431009D02*
X157214286Y-93526247D01*
X130407200Y-57333332D02*
X130454819Y-57190475D01*
X130454819Y-57190475D02*
X130454819Y-56952380D01*
X130454819Y-56952380D02*
X130407200Y-56857142D01*
X130407200Y-56857142D02*
X130359580Y-56809523D01*
X130359580Y-56809523D02*
X130264342Y-56761904D01*
X130264342Y-56761904D02*
X130169104Y-56761904D01*
X130169104Y-56761904D02*
X130073866Y-56809523D01*
X130073866Y-56809523D02*
X130026247Y-56857142D01*
X130026247Y-56857142D02*
X129978628Y-56952380D01*
X129978628Y-56952380D02*
X129931009Y-57142856D01*
X129931009Y-57142856D02*
X129883390Y-57238094D01*
X129883390Y-57238094D02*
X129835771Y-57285713D01*
X129835771Y-57285713D02*
X129740533Y-57333332D01*
X129740533Y-57333332D02*
X129645295Y-57333332D01*
X129645295Y-57333332D02*
X129550057Y-57285713D01*
X129550057Y-57285713D02*
X129502438Y-57238094D01*
X129502438Y-57238094D02*
X129454819Y-57142856D01*
X129454819Y-57142856D02*
X129454819Y-56904761D01*
X129454819Y-56904761D02*
X129502438Y-56761904D01*
X129454819Y-56428570D02*
X130454819Y-56190475D01*
X130454819Y-56190475D02*
X129740533Y-55999999D01*
X129740533Y-55999999D02*
X130454819Y-55809523D01*
X130454819Y-55809523D02*
X129454819Y-55571428D01*
X130454819Y-54666666D02*
X130454819Y-55238094D01*
X130454819Y-54952380D02*
X129454819Y-54952380D01*
X129454819Y-54952380D02*
X129597676Y-55047618D01*
X129597676Y-55047618D02*
X129692914Y-55142856D01*
X129692914Y-55142856D02*
X129740533Y-55238094D01*
X158991905Y-52494819D02*
X158991905Y-51494819D01*
X158991905Y-51494819D02*
X159230000Y-51494819D01*
X159230000Y-51494819D02*
X159372857Y-51542438D01*
X159372857Y-51542438D02*
X159468095Y-51637676D01*
X159468095Y-51637676D02*
X159515714Y-51732914D01*
X159515714Y-51732914D02*
X159563333Y-51923390D01*
X159563333Y-51923390D02*
X159563333Y-52066247D01*
X159563333Y-52066247D02*
X159515714Y-52256723D01*
X159515714Y-52256723D02*
X159468095Y-52351961D01*
X159468095Y-52351961D02*
X159372857Y-52447200D01*
X159372857Y-52447200D02*
X159230000Y-52494819D01*
X159230000Y-52494819D02*
X158991905Y-52494819D01*
X160420476Y-51828152D02*
X160420476Y-52494819D01*
X160182381Y-51447200D02*
X159944286Y-52161485D01*
X159944286Y-52161485D02*
X160563333Y-52161485D01*
X119583333Y-62359580D02*
X119535714Y-62407200D01*
X119535714Y-62407200D02*
X119392857Y-62454819D01*
X119392857Y-62454819D02*
X119297619Y-62454819D01*
X119297619Y-62454819D02*
X119154762Y-62407200D01*
X119154762Y-62407200D02*
X119059524Y-62311961D01*
X119059524Y-62311961D02*
X119011905Y-62216723D01*
X119011905Y-62216723D02*
X118964286Y-62026247D01*
X118964286Y-62026247D02*
X118964286Y-61883390D01*
X118964286Y-61883390D02*
X119011905Y-61692914D01*
X119011905Y-61692914D02*
X119059524Y-61597676D01*
X119059524Y-61597676D02*
X119154762Y-61502438D01*
X119154762Y-61502438D02*
X119297619Y-61454819D01*
X119297619Y-61454819D02*
X119392857Y-61454819D01*
X119392857Y-61454819D02*
X119535714Y-61502438D01*
X119535714Y-61502438D02*
X119583333Y-61550057D01*
X120535714Y-62454819D02*
X119964286Y-62454819D01*
X120250000Y-62454819D02*
X120250000Y-61454819D01*
X120250000Y-61454819D02*
X120154762Y-61597676D01*
X120154762Y-61597676D02*
X120059524Y-61692914D01*
X120059524Y-61692914D02*
X119964286Y-61740533D01*
X145738095Y-71314819D02*
X145738095Y-72124342D01*
X145738095Y-72124342D02*
X145785714Y-72219580D01*
X145785714Y-72219580D02*
X145833333Y-72267200D01*
X145833333Y-72267200D02*
X145928571Y-72314819D01*
X145928571Y-72314819D02*
X146119047Y-72314819D01*
X146119047Y-72314819D02*
X146214285Y-72267200D01*
X146214285Y-72267200D02*
X146261904Y-72219580D01*
X146261904Y-72219580D02*
X146309523Y-72124342D01*
X146309523Y-72124342D02*
X146309523Y-71314819D01*
X147309523Y-72314819D02*
X146738095Y-72314819D01*
X147023809Y-72314819D02*
X147023809Y-71314819D01*
X147023809Y-71314819D02*
X146928571Y-71457676D01*
X146928571Y-71457676D02*
X146833333Y-71552914D01*
X146833333Y-71552914D02*
X146738095Y-71600533D01*
X142357142Y-61084819D02*
X142023809Y-60608628D01*
X141785714Y-61084819D02*
X141785714Y-60084819D01*
X141785714Y-60084819D02*
X142166666Y-60084819D01*
X142166666Y-60084819D02*
X142261904Y-60132438D01*
X142261904Y-60132438D02*
X142309523Y-60180057D01*
X142309523Y-60180057D02*
X142357142Y-60275295D01*
X142357142Y-60275295D02*
X142357142Y-60418152D01*
X142357142Y-60418152D02*
X142309523Y-60513390D01*
X142309523Y-60513390D02*
X142261904Y-60561009D01*
X142261904Y-60561009D02*
X142166666Y-60608628D01*
X142166666Y-60608628D02*
X141785714Y-60608628D01*
X143309523Y-61084819D02*
X142738095Y-61084819D01*
X143023809Y-61084819D02*
X143023809Y-60084819D01*
X143023809Y-60084819D02*
X142928571Y-60227676D01*
X142928571Y-60227676D02*
X142833333Y-60322914D01*
X142833333Y-60322914D02*
X142738095Y-60370533D01*
X143928571Y-60084819D02*
X144023809Y-60084819D01*
X144023809Y-60084819D02*
X144119047Y-60132438D01*
X144119047Y-60132438D02*
X144166666Y-60180057D01*
X144166666Y-60180057D02*
X144214285Y-60275295D01*
X144214285Y-60275295D02*
X144261904Y-60465771D01*
X144261904Y-60465771D02*
X144261904Y-60703866D01*
X144261904Y-60703866D02*
X144214285Y-60894342D01*
X144214285Y-60894342D02*
X144166666Y-60989580D01*
X144166666Y-60989580D02*
X144119047Y-61037200D01*
X144119047Y-61037200D02*
X144023809Y-61084819D01*
X144023809Y-61084819D02*
X143928571Y-61084819D01*
X143928571Y-61084819D02*
X143833333Y-61037200D01*
X143833333Y-61037200D02*
X143785714Y-60989580D01*
X143785714Y-60989580D02*
X143738095Y-60894342D01*
X143738095Y-60894342D02*
X143690476Y-60703866D01*
X143690476Y-60703866D02*
X143690476Y-60465771D01*
X143690476Y-60465771D02*
X143738095Y-60275295D01*
X143738095Y-60275295D02*
X143785714Y-60180057D01*
X143785714Y-60180057D02*
X143833333Y-60132438D01*
X143833333Y-60132438D02*
X143928571Y-60084819D01*
X104738095Y-94074819D02*
X105309523Y-94074819D01*
X105023809Y-95074819D02*
X105023809Y-94074819D01*
X105642857Y-95074819D02*
X105642857Y-94074819D01*
X105642857Y-94074819D02*
X106023809Y-94074819D01*
X106023809Y-94074819D02*
X106119047Y-94122438D01*
X106119047Y-94122438D02*
X106166666Y-94170057D01*
X106166666Y-94170057D02*
X106214285Y-94265295D01*
X106214285Y-94265295D02*
X106214285Y-94408152D01*
X106214285Y-94408152D02*
X106166666Y-94503390D01*
X106166666Y-94503390D02*
X106119047Y-94551009D01*
X106119047Y-94551009D02*
X106023809Y-94598628D01*
X106023809Y-94598628D02*
X105642857Y-94598628D01*
X107071428Y-94408152D02*
X107071428Y-95074819D01*
X106833333Y-94027200D02*
X106595238Y-94741485D01*
X106595238Y-94741485D02*
X107214285Y-94741485D01*
X111833333Y-86454819D02*
X111500000Y-85978628D01*
X111261905Y-86454819D02*
X111261905Y-85454819D01*
X111261905Y-85454819D02*
X111642857Y-85454819D01*
X111642857Y-85454819D02*
X111738095Y-85502438D01*
X111738095Y-85502438D02*
X111785714Y-85550057D01*
X111785714Y-85550057D02*
X111833333Y-85645295D01*
X111833333Y-85645295D02*
X111833333Y-85788152D01*
X111833333Y-85788152D02*
X111785714Y-85883390D01*
X111785714Y-85883390D02*
X111738095Y-85931009D01*
X111738095Y-85931009D02*
X111642857Y-85978628D01*
X111642857Y-85978628D02*
X111261905Y-85978628D01*
X112166667Y-85454819D02*
X112785714Y-85454819D01*
X112785714Y-85454819D02*
X112452381Y-85835771D01*
X112452381Y-85835771D02*
X112595238Y-85835771D01*
X112595238Y-85835771D02*
X112690476Y-85883390D01*
X112690476Y-85883390D02*
X112738095Y-85931009D01*
X112738095Y-85931009D02*
X112785714Y-86026247D01*
X112785714Y-86026247D02*
X112785714Y-86264342D01*
X112785714Y-86264342D02*
X112738095Y-86359580D01*
X112738095Y-86359580D02*
X112690476Y-86407200D01*
X112690476Y-86407200D02*
X112595238Y-86454819D01*
X112595238Y-86454819D02*
X112309524Y-86454819D01*
X112309524Y-86454819D02*
X112214286Y-86407200D01*
X112214286Y-86407200D02*
X112166667Y-86359580D01*
X107166666Y-55159819D02*
X107166666Y-55874104D01*
X107166666Y-55874104D02*
X107119047Y-56016961D01*
X107119047Y-56016961D02*
X107023809Y-56112200D01*
X107023809Y-56112200D02*
X106880952Y-56159819D01*
X106880952Y-56159819D02*
X106785714Y-56159819D01*
X108119047Y-55159819D02*
X107642857Y-55159819D01*
X107642857Y-55159819D02*
X107595238Y-55636009D01*
X107595238Y-55636009D02*
X107642857Y-55588390D01*
X107642857Y-55588390D02*
X107738095Y-55540771D01*
X107738095Y-55540771D02*
X107976190Y-55540771D01*
X107976190Y-55540771D02*
X108071428Y-55588390D01*
X108071428Y-55588390D02*
X108119047Y-55636009D01*
X108119047Y-55636009D02*
X108166666Y-55731247D01*
X108166666Y-55731247D02*
X108166666Y-55969342D01*
X108166666Y-55969342D02*
X108119047Y-56064580D01*
X108119047Y-56064580D02*
X108071428Y-56112200D01*
X108071428Y-56112200D02*
X107976190Y-56159819D01*
X107976190Y-56159819D02*
X107738095Y-56159819D01*
X107738095Y-56159819D02*
X107642857Y-56112200D01*
X107642857Y-56112200D02*
X107595238Y-56064580D01*
X137666666Y-94454819D02*
X137666666Y-95169104D01*
X137666666Y-95169104D02*
X137619047Y-95311961D01*
X137619047Y-95311961D02*
X137523809Y-95407200D01*
X137523809Y-95407200D02*
X137380952Y-95454819D01*
X137380952Y-95454819D02*
X137285714Y-95454819D01*
X138666666Y-95454819D02*
X138095238Y-95454819D01*
X138380952Y-95454819D02*
X138380952Y-94454819D01*
X138380952Y-94454819D02*
X138285714Y-94597676D01*
X138285714Y-94597676D02*
X138190476Y-94692914D01*
X138190476Y-94692914D02*
X138095238Y-94740533D01*
X156666666Y-94454819D02*
X156666666Y-95169104D01*
X156666666Y-95169104D02*
X156619047Y-95311961D01*
X156619047Y-95311961D02*
X156523809Y-95407200D01*
X156523809Y-95407200D02*
X156380952Y-95454819D01*
X156380952Y-95454819D02*
X156285714Y-95454819D01*
X157047619Y-94454819D02*
X157666666Y-94454819D01*
X157666666Y-94454819D02*
X157333333Y-94835771D01*
X157333333Y-94835771D02*
X157476190Y-94835771D01*
X157476190Y-94835771D02*
X157571428Y-94883390D01*
X157571428Y-94883390D02*
X157619047Y-94931009D01*
X157619047Y-94931009D02*
X157666666Y-95026247D01*
X157666666Y-95026247D02*
X157666666Y-95264342D01*
X157666666Y-95264342D02*
X157619047Y-95359580D01*
X157619047Y-95359580D02*
X157571428Y-95407200D01*
X157571428Y-95407200D02*
X157476190Y-95454819D01*
X157476190Y-95454819D02*
X157190476Y-95454819D01*
X157190476Y-95454819D02*
X157095238Y-95407200D01*
X157095238Y-95407200D02*
X157047619Y-95359580D01*
X127666666Y-51454819D02*
X127666666Y-52169104D01*
X127666666Y-52169104D02*
X127619047Y-52311961D01*
X127619047Y-52311961D02*
X127523809Y-52407200D01*
X127523809Y-52407200D02*
X127380952Y-52454819D01*
X127380952Y-52454819D02*
X127285714Y-52454819D01*
X128095238Y-51550057D02*
X128142857Y-51502438D01*
X128142857Y-51502438D02*
X128238095Y-51454819D01*
X128238095Y-51454819D02*
X128476190Y-51454819D01*
X128476190Y-51454819D02*
X128571428Y-51502438D01*
X128571428Y-51502438D02*
X128619047Y-51550057D01*
X128619047Y-51550057D02*
X128666666Y-51645295D01*
X128666666Y-51645295D02*
X128666666Y-51740533D01*
X128666666Y-51740533D02*
X128619047Y-51883390D01*
X128619047Y-51883390D02*
X128047619Y-52454819D01*
X128047619Y-52454819D02*
X128666666Y-52454819D01*
X162666666Y-48654819D02*
X162666666Y-49369104D01*
X162666666Y-49369104D02*
X162619047Y-49511961D01*
X162619047Y-49511961D02*
X162523809Y-49607200D01*
X162523809Y-49607200D02*
X162380952Y-49654819D01*
X162380952Y-49654819D02*
X162285714Y-49654819D01*
X163571428Y-48988152D02*
X163571428Y-49654819D01*
X163333333Y-48607200D02*
X163095238Y-49321485D01*
X163095238Y-49321485D02*
X163714285Y-49321485D01*
D12*
%TO.C,D1*%
X104455000Y-53830000D02*
X107545000Y-53830000D01*
X104455170Y-53830000D02*
G75*
G02*
X105999952Y-48280000I1544830J2560000D01*
G01*
X106000048Y-48280000D02*
G75*
G02*
X107544830Y-53830000I-48J-2990000D01*
G01*
X108500000Y-51270000D02*
G75*
G02*
X103500000Y-51270000I-2500000J0D01*
G01*
X103500000Y-51270000D02*
G75*
G02*
X108500000Y-51270000I2500000J0D01*
G01*
%TO.C,R11*%
X151960000Y-63000000D02*
X152730000Y-63000000D01*
X152730000Y-61630000D02*
X152730000Y-64370000D01*
X152730000Y-64370000D02*
X159270000Y-64370000D01*
X159270000Y-61630000D02*
X152730000Y-61630000D01*
X159270000Y-64370000D02*
X159270000Y-61630000D01*
X160040000Y-63000000D02*
X159270000Y-63000000D01*
%TO.C,R2*%
X102630000Y-75730000D02*
X102630000Y-82270000D01*
X102630000Y-82270000D02*
X105370000Y-82270000D01*
X104000000Y-74960000D02*
X104000000Y-75730000D01*
X104000000Y-83040000D02*
X104000000Y-82270000D01*
X105370000Y-75730000D02*
X102630000Y-75730000D01*
X105370000Y-82270000D02*
X105370000Y-75730000D01*
%TO.C,C6*%
X153280000Y-75280000D02*
X153280000Y-82720000D01*
X160720000Y-75280000D02*
X153280000Y-75280000D01*
X160720000Y-75280000D02*
X160720000Y-82720000D01*
X160720000Y-82720000D02*
X153280000Y-82720000D01*
%TO.C,R7*%
X152960000Y-87000000D02*
X153730000Y-87000000D01*
X153730000Y-85630000D02*
X153730000Y-88370000D01*
X153730000Y-88370000D02*
X160270000Y-88370000D01*
X160270000Y-85630000D02*
X153730000Y-85630000D01*
X160270000Y-88370000D02*
X160270000Y-85630000D01*
X161040000Y-87000000D02*
X160270000Y-87000000D01*
%TO.C,R9*%
X125880000Y-63000000D02*
X126650000Y-63000000D01*
X126650000Y-61630000D02*
X126650000Y-64370000D01*
X126650000Y-64370000D02*
X133190000Y-64370000D01*
X133190000Y-61630000D02*
X126650000Y-61630000D01*
X133190000Y-64370000D02*
X133190000Y-61630000D01*
X133960000Y-63000000D02*
X133190000Y-63000000D01*
%TO.C,TP2*%
X164620000Y-81620000D02*
X166000000Y-81620000D01*
X164620000Y-83000000D02*
X164620000Y-81620000D01*
X164620000Y-84270000D02*
X164620000Y-84380000D01*
X164620000Y-84270000D02*
X167380000Y-84270000D01*
X164620000Y-84380000D02*
X167380000Y-84380000D01*
X167380000Y-84270000D02*
X167380000Y-84380000D01*
%TO.C,R8*%
X113960000Y-54000000D02*
X114730000Y-54000000D01*
X114730000Y-52630000D02*
X114730000Y-55370000D01*
X114730000Y-55370000D02*
X121270000Y-55370000D01*
X121270000Y-52630000D02*
X114730000Y-52630000D01*
X121270000Y-55370000D02*
X121270000Y-52630000D01*
X122040000Y-54000000D02*
X121270000Y-54000000D01*
%TO.C,TP3*%
X104620000Y-68620000D02*
X106000000Y-68620000D01*
X104620000Y-70000000D02*
X104620000Y-68620000D01*
X104620000Y-71270000D02*
X104620000Y-71380000D01*
X104620000Y-71270000D02*
X107380000Y-71270000D01*
X104620000Y-71380000D02*
X107380000Y-71380000D01*
X107380000Y-71270000D02*
X107380000Y-71380000D01*
%TO.C,D2*%
X141170000Y-54455000D02*
X141170000Y-57545000D01*
X141170000Y-54455170D02*
G75*
G02*
X146720000Y-55999952I2560000J-1544830D01*
G01*
X146720000Y-56000048D02*
G75*
G02*
X141170000Y-57544830I-2990000J48D01*
G01*
X146230000Y-56000000D02*
G75*
G02*
X141230000Y-56000000I-2500000J0D01*
G01*
X141230000Y-56000000D02*
G75*
G02*
X146230000Y-56000000I2500000J0D01*
G01*
%TO.C,C4*%
X125280000Y-67630000D02*
X125280000Y-70370000D01*
X125280000Y-67630000D02*
X132720000Y-67630000D01*
X125280000Y-70370000D02*
X132720000Y-70370000D01*
X132720000Y-67630000D02*
X132720000Y-70370000D01*
%TO.C,TP1*%
X119620000Y-98380000D02*
X119620000Y-97000000D01*
X121000000Y-98380000D02*
X119620000Y-98380000D01*
X122270000Y-95620000D02*
X122380000Y-95620000D01*
X122270000Y-98380000D02*
X122270000Y-95620000D01*
X122270000Y-98380000D02*
X122380000Y-98380000D01*
X122380000Y-98380000D02*
X122380000Y-95620000D01*
%TO.C,C2*%
X135195225Y-68525000D02*
X135695225Y-68525000D01*
X135445225Y-68275000D02*
X135445225Y-68775000D01*
X138000000Y-67420000D02*
X138000000Y-68960000D01*
X138000000Y-71040000D02*
X138000000Y-72580000D01*
X138040000Y-67420000D02*
X138040000Y-68960000D01*
X138040000Y-71040000D02*
X138040000Y-72580000D01*
X138080000Y-67421000D02*
X138080000Y-68960000D01*
X138080000Y-71040000D02*
X138080000Y-72579000D01*
X138120000Y-67423000D02*
X138120000Y-68960000D01*
X138120000Y-71040000D02*
X138120000Y-72577000D01*
X138160000Y-67425000D02*
X138160000Y-68960000D01*
X138160000Y-71040000D02*
X138160000Y-72575000D01*
X138200000Y-67428000D02*
X138200000Y-68960000D01*
X138200000Y-71040000D02*
X138200000Y-72572000D01*
X138240000Y-67431000D02*
X138240000Y-68960000D01*
X138240000Y-71040000D02*
X138240000Y-72569000D01*
X138280000Y-67435000D02*
X138280000Y-68960000D01*
X138280000Y-71040000D02*
X138280000Y-72565000D01*
X138320000Y-67440000D02*
X138320000Y-68960000D01*
X138320000Y-71040000D02*
X138320000Y-72560000D01*
X138360000Y-67445000D02*
X138360000Y-68960000D01*
X138360000Y-71040000D02*
X138360000Y-72555000D01*
X138400000Y-67451000D02*
X138400000Y-68960000D01*
X138400000Y-71040000D02*
X138400000Y-72549000D01*
X138440000Y-67457000D02*
X138440000Y-68960000D01*
X138440000Y-71040000D02*
X138440000Y-72543000D01*
X138480000Y-67464000D02*
X138480000Y-68960000D01*
X138480000Y-71040000D02*
X138480000Y-72536000D01*
X138520000Y-67472000D02*
X138520000Y-68960000D01*
X138520000Y-71040000D02*
X138520000Y-72528000D01*
X138560000Y-67481000D02*
X138560000Y-68960000D01*
X138560000Y-71040000D02*
X138560000Y-72519000D01*
X138600000Y-67490000D02*
X138600000Y-68960000D01*
X138600000Y-71040000D02*
X138600000Y-72510000D01*
X138640000Y-67499000D02*
X138640000Y-68960000D01*
X138640000Y-71040000D02*
X138640000Y-72501000D01*
X138680000Y-67510000D02*
X138680000Y-68960000D01*
X138680000Y-71040000D02*
X138680000Y-72490000D01*
X138720000Y-67521000D02*
X138720000Y-68960000D01*
X138720000Y-71040000D02*
X138720000Y-72479000D01*
X138760000Y-67533000D02*
X138760000Y-68960000D01*
X138760000Y-71040000D02*
X138760000Y-72467000D01*
X138800000Y-67545000D02*
X138800000Y-68960000D01*
X138800000Y-71040000D02*
X138800000Y-72455000D01*
X138840000Y-67558000D02*
X138840000Y-68960000D01*
X138840000Y-71040000D02*
X138840000Y-72442000D01*
X138880000Y-67572000D02*
X138880000Y-68960000D01*
X138880000Y-71040000D02*
X138880000Y-72428000D01*
X138920000Y-67587000D02*
X138920000Y-68960000D01*
X138920000Y-71040000D02*
X138920000Y-72413000D01*
X138960000Y-67602000D02*
X138960000Y-68960000D01*
X138960000Y-71040000D02*
X138960000Y-72398000D01*
X139000000Y-67618000D02*
X139000000Y-68960000D01*
X139000000Y-71040000D02*
X139000000Y-72382000D01*
X139040000Y-67635000D02*
X139040000Y-68960000D01*
X139040000Y-71040000D02*
X139040000Y-72365000D01*
X139080000Y-67653000D02*
X139080000Y-68960000D01*
X139080000Y-71040000D02*
X139080000Y-72347000D01*
X139120000Y-67671000D02*
X139120000Y-68960000D01*
X139120000Y-71040000D02*
X139120000Y-72329000D01*
X139160000Y-67691000D02*
X139160000Y-68960000D01*
X139160000Y-71040000D02*
X139160000Y-72309000D01*
X139200000Y-67711000D02*
X139200000Y-68960000D01*
X139200000Y-71040000D02*
X139200000Y-72289000D01*
X139240000Y-67732000D02*
X139240000Y-68960000D01*
X139240000Y-71040000D02*
X139240000Y-72268000D01*
X139280000Y-67754000D02*
X139280000Y-68960000D01*
X139280000Y-71040000D02*
X139280000Y-72246000D01*
X139320000Y-67777000D02*
X139320000Y-68960000D01*
X139320000Y-71040000D02*
X139320000Y-72223000D01*
X139360000Y-67801000D02*
X139360000Y-68960000D01*
X139360000Y-71040000D02*
X139360000Y-72199000D01*
X139400000Y-67825000D02*
X139400000Y-68960000D01*
X139400000Y-71040000D02*
X139400000Y-72175000D01*
X139440000Y-67851000D02*
X139440000Y-68960000D01*
X139440000Y-71040000D02*
X139440000Y-72149000D01*
X139480000Y-67878000D02*
X139480000Y-68960000D01*
X139480000Y-71040000D02*
X139480000Y-72122000D01*
X139520000Y-67906000D02*
X139520000Y-68960000D01*
X139520000Y-71040000D02*
X139520000Y-72094000D01*
X139560000Y-67935000D02*
X139560000Y-68960000D01*
X139560000Y-71040000D02*
X139560000Y-72065000D01*
X139600000Y-67965000D02*
X139600000Y-68960000D01*
X139600000Y-71040000D02*
X139600000Y-72035000D01*
X139640000Y-67997000D02*
X139640000Y-68960000D01*
X139640000Y-71040000D02*
X139640000Y-72003000D01*
X139680000Y-68030000D02*
X139680000Y-68960000D01*
X139680000Y-71040000D02*
X139680000Y-71970000D01*
X139720000Y-68064000D02*
X139720000Y-68960000D01*
X139720000Y-71040000D02*
X139720000Y-71936000D01*
X139760000Y-68099000D02*
X139760000Y-68960000D01*
X139760000Y-71040000D02*
X139760000Y-71901000D01*
X139800000Y-68136000D02*
X139800000Y-68960000D01*
X139800000Y-71040000D02*
X139800000Y-71864000D01*
X139840000Y-68175000D02*
X139840000Y-68960000D01*
X139840000Y-71040000D02*
X139840000Y-71825000D01*
X139880000Y-68215000D02*
X139880000Y-68960000D01*
X139880000Y-71040000D02*
X139880000Y-71785000D01*
X139920000Y-68257000D02*
X139920000Y-68960000D01*
X139920000Y-71040000D02*
X139920000Y-71743000D01*
X139960000Y-68301000D02*
X139960000Y-68960000D01*
X139960000Y-71040000D02*
X139960000Y-71699000D01*
X140000000Y-68348000D02*
X140000000Y-68960000D01*
X140000000Y-71040000D02*
X140000000Y-71652000D01*
X140040000Y-68396000D02*
X140040000Y-71604000D01*
X140080000Y-68447000D02*
X140080000Y-71553000D01*
X140120000Y-68501000D02*
X140120000Y-71499000D01*
X140160000Y-68557000D02*
X140160000Y-71443000D01*
X140200000Y-68617000D02*
X140200000Y-71383000D01*
X140240000Y-68681000D02*
X140240000Y-71319000D01*
X140280000Y-68749000D02*
X140280000Y-71251000D01*
X140320000Y-68823000D02*
X140320000Y-71177000D01*
X140360000Y-68902000D02*
X140360000Y-71098000D01*
X140400000Y-68989000D02*
X140400000Y-71011000D01*
X140440000Y-69086000D02*
X140440000Y-70914000D01*
X140480000Y-69195000D02*
X140480000Y-70805000D01*
X140520000Y-69323000D02*
X140520000Y-70677000D01*
X140560000Y-69483000D02*
X140560000Y-70517000D01*
X140600000Y-69717000D02*
X140600000Y-70283000D01*
X140620000Y-70000000D02*
G75*
G02*
X135380000Y-70000000I-2620000J0D01*
G01*
X135380000Y-70000000D02*
G75*
G02*
X140620000Y-70000000I2620000J0D01*
G01*
%TO.C,U3*%
X117355000Y-73130000D02*
X117355000Y-83410000D01*
X117355000Y-83410000D02*
X122655000Y-83410000D01*
X119005000Y-73130000D02*
X117355000Y-73130000D01*
X122655000Y-73130000D02*
X121005000Y-73130000D01*
X122655000Y-83410000D02*
X122655000Y-73130000D01*
X121005000Y-73130000D02*
G75*
G02*
X119005000Y-73130000I-1000000J0D01*
G01*
%TO.C,R1*%
X106630000Y-75730000D02*
X106630000Y-82270000D01*
X106630000Y-82270000D02*
X109370000Y-82270000D01*
X108000000Y-74960000D02*
X108000000Y-75730000D01*
X108000000Y-83040000D02*
X108000000Y-82270000D01*
X109370000Y-75730000D02*
X106630000Y-75730000D01*
X109370000Y-82270000D02*
X109370000Y-75730000D01*
%TO.C,R12*%
X151960000Y-67000000D02*
X152730000Y-67000000D01*
X152730000Y-65630000D02*
X152730000Y-68370000D01*
X152730000Y-68370000D02*
X159270000Y-68370000D01*
X159270000Y-65630000D02*
X152730000Y-65630000D01*
X159270000Y-68370000D02*
X159270000Y-65630000D01*
X160040000Y-67000000D02*
X159270000Y-67000000D01*
%TO.C,C5*%
X116249759Y-87161000D02*
X116879759Y-87161000D01*
X116564759Y-86846000D02*
X116564759Y-87476000D01*
X119750000Y-85770000D02*
X119750000Y-92230000D01*
X119790000Y-85770000D02*
X119790000Y-92230000D01*
X119830000Y-85771000D02*
X119830000Y-92229000D01*
X119870000Y-85772000D02*
X119870000Y-92228000D01*
X119910000Y-85774000D02*
X119910000Y-92226000D01*
X119950000Y-85776000D02*
X119950000Y-92224000D01*
X119990000Y-85779000D02*
X119990000Y-87960000D01*
X119990000Y-90040000D02*
X119990000Y-92221000D01*
X120030000Y-85782000D02*
X120030000Y-87960000D01*
X120030000Y-90040000D02*
X120030000Y-92218000D01*
X120070000Y-85786000D02*
X120070000Y-87960000D01*
X120070000Y-90040000D02*
X120070000Y-92214000D01*
X120110000Y-85790000D02*
X120110000Y-87960000D01*
X120110000Y-90040000D02*
X120110000Y-92210000D01*
X120150000Y-85795000D02*
X120150000Y-87960000D01*
X120150000Y-90040000D02*
X120150000Y-92205000D01*
X120190000Y-85800000D02*
X120190000Y-87960000D01*
X120190000Y-90040000D02*
X120190000Y-92200000D01*
X120230000Y-85805000D02*
X120230000Y-87960000D01*
X120230000Y-90040000D02*
X120230000Y-92195000D01*
X120270000Y-85812000D02*
X120270000Y-87960000D01*
X120270000Y-90040000D02*
X120270000Y-92188000D01*
X120310000Y-85818000D02*
X120310000Y-87960000D01*
X120310000Y-90040000D02*
X120310000Y-92182000D01*
X120350000Y-85826000D02*
X120350000Y-87960000D01*
X120350000Y-90040000D02*
X120350000Y-92174000D01*
X120390000Y-85833000D02*
X120390000Y-87960000D01*
X120390000Y-90040000D02*
X120390000Y-92167000D01*
X120430000Y-85841000D02*
X120430000Y-87960000D01*
X120430000Y-90040000D02*
X120430000Y-92159000D01*
X120470000Y-85850000D02*
X120470000Y-87960000D01*
X120470000Y-90040000D02*
X120470000Y-92150000D01*
X120510000Y-85860000D02*
X120510000Y-87960000D01*
X120510000Y-90040000D02*
X120510000Y-92140000D01*
X120550000Y-85869000D02*
X120550000Y-87960000D01*
X120550000Y-90040000D02*
X120550000Y-92131000D01*
X120590000Y-85880000D02*
X120590000Y-87960000D01*
X120590000Y-90040000D02*
X120590000Y-92120000D01*
X120630000Y-85891000D02*
X120630000Y-87960000D01*
X120630000Y-90040000D02*
X120630000Y-92109000D01*
X120670000Y-85902000D02*
X120670000Y-87960000D01*
X120670000Y-90040000D02*
X120670000Y-92098000D01*
X120710000Y-85914000D02*
X120710000Y-87960000D01*
X120710000Y-90040000D02*
X120710000Y-92086000D01*
X120750000Y-85927000D02*
X120750000Y-87960000D01*
X120750000Y-90040000D02*
X120750000Y-92073000D01*
X120790000Y-85940000D02*
X120790000Y-87960000D01*
X120790000Y-90040000D02*
X120790000Y-92060000D01*
X120830000Y-85953000D02*
X120830000Y-87960000D01*
X120830000Y-90040000D02*
X120830000Y-92047000D01*
X120870000Y-85968000D02*
X120870000Y-87960000D01*
X120870000Y-90040000D02*
X120870000Y-92032000D01*
X120910000Y-85983000D02*
X120910000Y-87960000D01*
X120910000Y-90040000D02*
X120910000Y-92017000D01*
X120950000Y-85998000D02*
X120950000Y-87960000D01*
X120950000Y-90040000D02*
X120950000Y-92002000D01*
X120990000Y-86014000D02*
X120990000Y-87960000D01*
X120990000Y-90040000D02*
X120990000Y-91986000D01*
X121030000Y-86031000D02*
X121030000Y-87960000D01*
X121030000Y-90040000D02*
X121030000Y-91969000D01*
X121070000Y-86048000D02*
X121070000Y-87960000D01*
X121070000Y-90040000D02*
X121070000Y-91952000D01*
X121110000Y-86066000D02*
X121110000Y-87960000D01*
X121110000Y-90040000D02*
X121110000Y-91934000D01*
X121150000Y-86085000D02*
X121150000Y-87960000D01*
X121150000Y-90040000D02*
X121150000Y-91915000D01*
X121190000Y-86104000D02*
X121190000Y-87960000D01*
X121190000Y-90040000D02*
X121190000Y-91896000D01*
X121230000Y-86124000D02*
X121230000Y-87960000D01*
X121230000Y-90040000D02*
X121230000Y-91876000D01*
X121270000Y-86145000D02*
X121270000Y-87960000D01*
X121270000Y-90040000D02*
X121270000Y-91855000D01*
X121310000Y-86166000D02*
X121310000Y-87960000D01*
X121310000Y-90040000D02*
X121310000Y-91834000D01*
X121350000Y-86188000D02*
X121350000Y-87960000D01*
X121350000Y-90040000D02*
X121350000Y-91812000D01*
X121390000Y-86211000D02*
X121390000Y-87960000D01*
X121390000Y-90040000D02*
X121390000Y-91789000D01*
X121430000Y-86235000D02*
X121430000Y-87960000D01*
X121430000Y-90040000D02*
X121430000Y-91765000D01*
X121470000Y-86259000D02*
X121470000Y-87960000D01*
X121470000Y-90040000D02*
X121470000Y-91741000D01*
X121510000Y-86284000D02*
X121510000Y-87960000D01*
X121510000Y-90040000D02*
X121510000Y-91716000D01*
X121550000Y-86310000D02*
X121550000Y-87960000D01*
X121550000Y-90040000D02*
X121550000Y-91690000D01*
X121590000Y-86337000D02*
X121590000Y-87960000D01*
X121590000Y-90040000D02*
X121590000Y-91663000D01*
X121630000Y-86364000D02*
X121630000Y-87960000D01*
X121630000Y-90040000D02*
X121630000Y-91636000D01*
X121670000Y-86393000D02*
X121670000Y-87960000D01*
X121670000Y-90040000D02*
X121670000Y-91607000D01*
X121710000Y-86423000D02*
X121710000Y-87960000D01*
X121710000Y-90040000D02*
X121710000Y-91577000D01*
X121750000Y-86453000D02*
X121750000Y-87960000D01*
X121750000Y-90040000D02*
X121750000Y-91547000D01*
X121790000Y-86484000D02*
X121790000Y-87960000D01*
X121790000Y-90040000D02*
X121790000Y-91516000D01*
X121830000Y-86517000D02*
X121830000Y-87960000D01*
X121830000Y-90040000D02*
X121830000Y-91483000D01*
X121870000Y-86550000D02*
X121870000Y-87960000D01*
X121870000Y-90040000D02*
X121870000Y-91450000D01*
X121910000Y-86585000D02*
X121910000Y-87960000D01*
X121910000Y-90040000D02*
X121910000Y-91415000D01*
X121950000Y-86621000D02*
X121950000Y-87960000D01*
X121950000Y-90040000D02*
X121950000Y-91379000D01*
X121990000Y-86658000D02*
X121990000Y-87960000D01*
X121990000Y-90040000D02*
X121990000Y-91342000D01*
X122030000Y-86696000D02*
X122030000Y-87960000D01*
X122030000Y-90040000D02*
X122030000Y-91304000D01*
X122070000Y-86736000D02*
X122070000Y-91264000D01*
X122110000Y-86777000D02*
X122110000Y-91223000D01*
X122150000Y-86819000D02*
X122150000Y-91181000D01*
X122190000Y-86863000D02*
X122190000Y-91137000D01*
X122230000Y-86909000D02*
X122230000Y-91091000D01*
X122270000Y-86956000D02*
X122270000Y-91044000D01*
X122310000Y-87005000D02*
X122310000Y-90995000D01*
X122350000Y-87057000D02*
X122350000Y-90943000D01*
X122390000Y-87110000D02*
X122390000Y-90890000D01*
X122430000Y-87166000D02*
X122430000Y-90834000D01*
X122470000Y-87225000D02*
X122470000Y-90775000D01*
X122510000Y-87286000D02*
X122510000Y-90714000D01*
X122550000Y-87351000D02*
X122550000Y-90649000D01*
X122590000Y-87419000D02*
X122590000Y-90581000D01*
X122630000Y-87491000D02*
X122630000Y-90509000D01*
X122670000Y-87568000D02*
X122670000Y-90432000D01*
X122710000Y-87650000D02*
X122710000Y-90350000D01*
X122750000Y-87739000D02*
X122750000Y-90261000D01*
X122790000Y-87835000D02*
X122790000Y-90165000D01*
X122830000Y-87942000D02*
X122830000Y-90058000D01*
X122870000Y-88061000D02*
X122870000Y-89939000D01*
X122910000Y-88199000D02*
X122910000Y-89801000D01*
X122950000Y-88367000D02*
X122950000Y-89633000D01*
X122990000Y-88598000D02*
X122990000Y-89402000D01*
X123020000Y-89000000D02*
G75*
G02*
X116480000Y-89000000I-3270000J0D01*
G01*
X116480000Y-89000000D02*
G75*
G02*
X123020000Y-89000000I3270000J0D01*
G01*
%TO.C,D3*%
X149170000Y-54455000D02*
X149170000Y-57545000D01*
X149170000Y-54455170D02*
G75*
G02*
X154720000Y-55999952I2560000J-1544830D01*
G01*
X154720000Y-56000048D02*
G75*
G02*
X149170000Y-57544830I-2990000J48D01*
G01*
X154230000Y-56000000D02*
G75*
G02*
X149230000Y-56000000I-2500000J0D01*
G01*
X149230000Y-56000000D02*
G75*
G02*
X154230000Y-56000000I2500000J0D01*
G01*
%TO.C,R5*%
X138960000Y-91000000D02*
X139730000Y-91000000D01*
X139730000Y-89630000D02*
X139730000Y-92370000D01*
X139730000Y-92370000D02*
X146270000Y-92370000D01*
X146270000Y-89630000D02*
X139730000Y-89630000D01*
X146270000Y-92370000D02*
X146270000Y-89630000D01*
X147040000Y-91000000D02*
X146270000Y-91000000D01*
%TO.C,C3*%
X132280000Y-75280000D02*
X139720000Y-75280000D01*
X132280000Y-82720000D02*
X132280000Y-75280000D01*
X132280000Y-82720000D02*
X139720000Y-82720000D01*
X139720000Y-82720000D02*
X139720000Y-75280000D01*
%TO.C,R4*%
X127630000Y-75730000D02*
X127630000Y-82270000D01*
X127630000Y-82270000D02*
X130370000Y-82270000D01*
X129000000Y-74960000D02*
X129000000Y-75730000D01*
X129000000Y-83040000D02*
X129000000Y-82270000D01*
X130370000Y-75730000D02*
X127630000Y-75730000D01*
X130370000Y-82270000D02*
X130370000Y-75730000D01*
%TO.C,R6*%
X152960000Y-91000000D02*
X153730000Y-91000000D01*
X153730000Y-89630000D02*
X153730000Y-92370000D01*
X153730000Y-92370000D02*
X160270000Y-92370000D01*
X160270000Y-89630000D02*
X153730000Y-89630000D01*
X160270000Y-92370000D02*
X160270000Y-89630000D01*
X161040000Y-91000000D02*
X160270000Y-91000000D01*
%TO.C,SW1*%
X131750000Y-53750000D02*
X131750000Y-58250000D01*
X134250000Y-59500000D02*
X135750000Y-59500000D01*
X135750000Y-52500000D02*
X134250000Y-52500000D01*
X138250000Y-58250000D02*
X138250000Y-53750000D01*
%TO.C,D4*%
X157170000Y-54455000D02*
X157170000Y-57545000D01*
X157170000Y-54455170D02*
G75*
G02*
X162720000Y-55999952I2560000J-1544830D01*
G01*
X162720000Y-56000048D02*
G75*
G02*
X157170000Y-57544830I-2990000J48D01*
G01*
X162230000Y-56000000D02*
G75*
G02*
X157230000Y-56000000I-2500000J0D01*
G01*
X157230000Y-56000000D02*
G75*
G02*
X162230000Y-56000000I2500000J0D01*
G01*
%TO.C,C1*%
X116510000Y-66402000D02*
X116510000Y-65598000D01*
X116550000Y-66633000D02*
X116550000Y-65367000D01*
X116590000Y-66801000D02*
X116590000Y-65199000D01*
X116630000Y-66939000D02*
X116630000Y-65061000D01*
X116670000Y-67058000D02*
X116670000Y-64942000D01*
X116710000Y-67165000D02*
X116710000Y-64835000D01*
X116750000Y-67261000D02*
X116750000Y-64739000D01*
X116790000Y-67350000D02*
X116790000Y-64650000D01*
X116830000Y-67432000D02*
X116830000Y-64568000D01*
X116870000Y-67509000D02*
X116870000Y-64491000D01*
X116910000Y-67581000D02*
X116910000Y-64419000D01*
X116950000Y-67649000D02*
X116950000Y-64351000D01*
X116990000Y-67714000D02*
X116990000Y-64286000D01*
X117030000Y-67775000D02*
X117030000Y-64225000D01*
X117070000Y-67834000D02*
X117070000Y-64166000D01*
X117110000Y-67890000D02*
X117110000Y-64110000D01*
X117150000Y-67943000D02*
X117150000Y-64057000D01*
X117190000Y-67995000D02*
X117190000Y-64005000D01*
X117230000Y-68044000D02*
X117230000Y-63956000D01*
X117270000Y-68091000D02*
X117270000Y-63909000D01*
X117310000Y-68137000D02*
X117310000Y-63863000D01*
X117350000Y-68181000D02*
X117350000Y-63819000D01*
X117390000Y-68223000D02*
X117390000Y-63777000D01*
X117430000Y-68264000D02*
X117430000Y-63736000D01*
X117470000Y-64960000D02*
X117470000Y-63696000D01*
X117470000Y-68304000D02*
X117470000Y-67040000D01*
X117510000Y-64960000D02*
X117510000Y-63658000D01*
X117510000Y-68342000D02*
X117510000Y-67040000D01*
X117550000Y-64960000D02*
X117550000Y-63621000D01*
X117550000Y-68379000D02*
X117550000Y-67040000D01*
X117590000Y-64960000D02*
X117590000Y-63585000D01*
X117590000Y-68415000D02*
X117590000Y-67040000D01*
X117630000Y-64960000D02*
X117630000Y-63550000D01*
X117630000Y-68450000D02*
X117630000Y-67040000D01*
X117670000Y-64960000D02*
X117670000Y-63517000D01*
X117670000Y-68483000D02*
X117670000Y-67040000D01*
X117710000Y-64960000D02*
X117710000Y-63484000D01*
X117710000Y-68516000D02*
X117710000Y-67040000D01*
X117750000Y-64960000D02*
X117750000Y-63453000D01*
X117750000Y-68547000D02*
X117750000Y-67040000D01*
X117790000Y-64960000D02*
X117790000Y-63423000D01*
X117790000Y-68577000D02*
X117790000Y-67040000D01*
X117830000Y-64960000D02*
X117830000Y-63393000D01*
X117830000Y-68607000D02*
X117830000Y-67040000D01*
X117870000Y-64960000D02*
X117870000Y-63364000D01*
X117870000Y-68636000D02*
X117870000Y-67040000D01*
X117910000Y-64960000D02*
X117910000Y-63337000D01*
X117910000Y-68663000D02*
X117910000Y-67040000D01*
X117950000Y-64960000D02*
X117950000Y-63310000D01*
X117950000Y-68690000D02*
X117950000Y-67040000D01*
X117990000Y-64960000D02*
X117990000Y-63284000D01*
X117990000Y-68716000D02*
X117990000Y-67040000D01*
X118030000Y-64960000D02*
X118030000Y-63259000D01*
X118030000Y-68741000D02*
X118030000Y-67040000D01*
X118070000Y-64960000D02*
X118070000Y-63235000D01*
X118070000Y-68765000D02*
X118070000Y-67040000D01*
X118110000Y-64960000D02*
X118110000Y-63211000D01*
X118110000Y-68789000D02*
X118110000Y-67040000D01*
X118150000Y-64960000D02*
X118150000Y-63188000D01*
X118150000Y-68812000D02*
X118150000Y-67040000D01*
X118190000Y-64960000D02*
X118190000Y-63166000D01*
X118190000Y-68834000D02*
X118190000Y-67040000D01*
X118230000Y-64960000D02*
X118230000Y-63145000D01*
X118230000Y-68855000D02*
X118230000Y-67040000D01*
X118270000Y-64960000D02*
X118270000Y-63124000D01*
X118270000Y-68876000D02*
X118270000Y-67040000D01*
X118310000Y-64960000D02*
X118310000Y-63104000D01*
X118310000Y-68896000D02*
X118310000Y-67040000D01*
X118350000Y-64960000D02*
X118350000Y-63085000D01*
X118350000Y-68915000D02*
X118350000Y-67040000D01*
X118390000Y-64960000D02*
X118390000Y-63066000D01*
X118390000Y-68934000D02*
X118390000Y-67040000D01*
X118430000Y-64960000D02*
X118430000Y-63048000D01*
X118430000Y-68952000D02*
X118430000Y-67040000D01*
X118470000Y-64960000D02*
X118470000Y-63031000D01*
X118470000Y-68969000D02*
X118470000Y-67040000D01*
X118510000Y-64960000D02*
X118510000Y-63014000D01*
X118510000Y-68986000D02*
X118510000Y-67040000D01*
X118550000Y-64960000D02*
X118550000Y-62998000D01*
X118550000Y-69002000D02*
X118550000Y-67040000D01*
X118590000Y-64960000D02*
X118590000Y-62983000D01*
X118590000Y-69017000D02*
X118590000Y-67040000D01*
X118630000Y-64960000D02*
X118630000Y-62968000D01*
X118630000Y-69032000D02*
X118630000Y-67040000D01*
X118670000Y-64960000D02*
X118670000Y-62953000D01*
X118670000Y-69047000D02*
X118670000Y-67040000D01*
X118710000Y-64960000D02*
X118710000Y-62940000D01*
X118710000Y-69060000D02*
X118710000Y-67040000D01*
X118750000Y-64960000D02*
X118750000Y-62927000D01*
X118750000Y-69073000D02*
X118750000Y-67040000D01*
X118790000Y-64960000D02*
X118790000Y-62914000D01*
X118790000Y-69086000D02*
X118790000Y-67040000D01*
X118830000Y-64960000D02*
X118830000Y-62902000D01*
X118830000Y-69098000D02*
X118830000Y-67040000D01*
X118870000Y-64960000D02*
X118870000Y-62891000D01*
X118870000Y-69109000D02*
X118870000Y-67040000D01*
X118910000Y-64960000D02*
X118910000Y-62880000D01*
X118910000Y-69120000D02*
X118910000Y-67040000D01*
X118950000Y-64960000D02*
X118950000Y-62869000D01*
X118950000Y-69131000D02*
X118950000Y-67040000D01*
X118990000Y-64960000D02*
X118990000Y-62860000D01*
X118990000Y-69140000D02*
X118990000Y-67040000D01*
X119030000Y-64960000D02*
X119030000Y-62850000D01*
X119030000Y-69150000D02*
X119030000Y-67040000D01*
X119070000Y-64960000D02*
X119070000Y-62841000D01*
X119070000Y-69159000D02*
X119070000Y-67040000D01*
X119110000Y-64960000D02*
X119110000Y-62833000D01*
X119110000Y-69167000D02*
X119110000Y-67040000D01*
X119150000Y-64960000D02*
X119150000Y-62826000D01*
X119150000Y-69174000D02*
X119150000Y-67040000D01*
X119190000Y-64960000D02*
X119190000Y-62818000D01*
X119190000Y-69182000D02*
X119190000Y-67040000D01*
X119230000Y-64960000D02*
X119230000Y-62812000D01*
X119230000Y-69188000D02*
X119230000Y-67040000D01*
X119270000Y-64960000D02*
X119270000Y-62805000D01*
X119270000Y-69195000D02*
X119270000Y-67040000D01*
X119310000Y-64960000D02*
X119310000Y-62800000D01*
X119310000Y-69200000D02*
X119310000Y-67040000D01*
X119350000Y-64960000D02*
X119350000Y-62795000D01*
X119350000Y-69205000D02*
X119350000Y-67040000D01*
X119390000Y-64960000D02*
X119390000Y-62790000D01*
X119390000Y-69210000D02*
X119390000Y-67040000D01*
X119430000Y-64960000D02*
X119430000Y-62786000D01*
X119430000Y-69214000D02*
X119430000Y-67040000D01*
X119470000Y-64960000D02*
X119470000Y-62782000D01*
X119470000Y-69218000D02*
X119470000Y-67040000D01*
X119510000Y-64960000D02*
X119510000Y-62779000D01*
X119510000Y-69221000D02*
X119510000Y-67040000D01*
X119550000Y-69224000D02*
X119550000Y-62776000D01*
X119590000Y-69226000D02*
X119590000Y-62774000D01*
X119630000Y-69228000D02*
X119630000Y-62772000D01*
X119670000Y-69229000D02*
X119670000Y-62771000D01*
X119710000Y-69230000D02*
X119710000Y-62770000D01*
X119750000Y-69230000D02*
X119750000Y-62770000D01*
X122935241Y-68154000D02*
X122935241Y-67524000D01*
X123250241Y-67839000D02*
X122620241Y-67839000D01*
X123020000Y-66000000D02*
G75*
G02*
X116480000Y-66000000I-3270000J0D01*
G01*
X116480000Y-66000000D02*
G75*
G02*
X123020000Y-66000000I3270000J0D01*
G01*
%TO.C,U1*%
X144355000Y-72860000D02*
X144355000Y-83140000D01*
X144355000Y-83140000D02*
X149655000Y-83140000D01*
X146005000Y-72860000D02*
X144355000Y-72860000D01*
X149655000Y-72860000D02*
X148005000Y-72860000D01*
X149655000Y-83140000D02*
X149655000Y-72860000D01*
X148005000Y-72860000D02*
G75*
G02*
X146005000Y-72860000I-1000000J0D01*
G01*
%TO.C,R10*%
X138960000Y-63000000D02*
X139730000Y-63000000D01*
X139730000Y-61630000D02*
X139730000Y-64370000D01*
X139730000Y-64370000D02*
X146270000Y-64370000D01*
X146270000Y-61630000D02*
X139730000Y-61630000D01*
X146270000Y-64370000D02*
X146270000Y-61630000D01*
X147040000Y-63000000D02*
X146270000Y-63000000D01*
%TO.C,TP4*%
X104620000Y-95620000D02*
X106000000Y-95620000D01*
X104620000Y-97000000D02*
X104620000Y-95620000D01*
X104620000Y-98270000D02*
X104620000Y-98380000D01*
X104620000Y-98270000D02*
X107380000Y-98270000D01*
X104620000Y-98380000D02*
X107380000Y-98380000D01*
X107380000Y-98270000D02*
X107380000Y-98380000D01*
%TO.C,R3*%
X110630000Y-75730000D02*
X110630000Y-82270000D01*
X110630000Y-82270000D02*
X113370000Y-82270000D01*
X112000000Y-74960000D02*
X112000000Y-75730000D01*
X112000000Y-83040000D02*
X112000000Y-82270000D01*
X113370000Y-75730000D02*
X110630000Y-75730000D01*
X113370000Y-82270000D02*
X113370000Y-75730000D01*
%TO.C,J5*%
X102910000Y-57145000D02*
X102910000Y-64885000D01*
X102910000Y-57145000D02*
X111540000Y-57145000D01*
X102910000Y-57265000D02*
X111540000Y-57265000D01*
X102910000Y-57383095D02*
X111540000Y-57383095D01*
X102910000Y-57501190D02*
X111540000Y-57501190D01*
X102910000Y-57619285D02*
X111540000Y-57619285D01*
X102910000Y-57737380D02*
X111540000Y-57737380D01*
X102910000Y-57855475D02*
X111540000Y-57855475D01*
X102910000Y-57973570D02*
X111540000Y-57973570D01*
X102910000Y-58091665D02*
X111540000Y-58091665D01*
X102910000Y-58209760D02*
X111540000Y-58209760D01*
X102910000Y-58327855D02*
X111540000Y-58327855D01*
X102910000Y-58445950D02*
X111540000Y-58445950D01*
X102910000Y-58564045D02*
X111540000Y-58564045D01*
X102910000Y-58682140D02*
X111540000Y-58682140D01*
X102910000Y-58800235D02*
X111540000Y-58800235D01*
X102910000Y-58918330D02*
X111540000Y-58918330D01*
X102910000Y-59036425D02*
X111540000Y-59036425D01*
X102910000Y-59154520D02*
X111540000Y-59154520D01*
X102910000Y-59272615D02*
X111540000Y-59272615D01*
X102910000Y-59390710D02*
X111540000Y-59390710D01*
X102910000Y-59508805D02*
X111540000Y-59508805D01*
X102910000Y-59626900D02*
X111540000Y-59626900D01*
X102910000Y-59745000D02*
X111540000Y-59745000D01*
X102910000Y-62285000D02*
X111540000Y-62285000D01*
X102910000Y-64885000D02*
X111540000Y-64885000D01*
X111540000Y-57145000D02*
X111540000Y-64885000D01*
X111540000Y-58115000D02*
X111890000Y-58115000D01*
X111540000Y-58835000D02*
X111890000Y-58835000D01*
X111540000Y-60655000D02*
X111950000Y-60655000D01*
X111540000Y-61375000D02*
X111950000Y-61375000D01*
X111540000Y-63195000D02*
X111950000Y-63195000D01*
X111540000Y-63915000D02*
X111950000Y-63915000D01*
X113000000Y-57145000D02*
X114110000Y-57145000D01*
X114110000Y-57145000D02*
X114110000Y-58475000D01*
%TD*%
M02*
