%TF.GenerationSoftware,KiCad,Pcbnew,9.0.1*%
%TF.CreationDate,2025-05-17T19:15:48+02:00*%
%TF.ProjectId,Bandpass_Filter,42616e64-7061-4737-935f-46696c746572,v1*%
%TF.SameCoordinates,Original*%
%TF.FileFunction,Soldermask,Top*%
%TF.FilePolarity,Negative*%
%FSLAX46Y46*%
G04 Gerber Fmt 4.6, Leading zero omitted, Abs format (unit mm)*
G04 Created by KiCad (PCBNEW 9.0.1) date 2025-05-17 19:15:48*
%MOMM*%
%LPD*%
G01*
G04 APERTURE LIST*
G04 Aperture macros list*
%AMRoundRect*
0 Rectangle with rounded corners*
0 $1 Rounding radius*
0 $2 $3 $4 $5 $6 $7 $8 $9 X,Y pos of 4 corners*
0 Add a 4 corners polygon primitive as box body*
4,1,4,$2,$3,$4,$5,$6,$7,$8,$9,$2,$3,0*
0 Add four circle primitives for the rounded corners*
1,1,$1+$1,$2,$3*
1,1,$1+$1,$4,$5*
1,1,$1+$1,$6,$7*
1,1,$1+$1,$8,$9*
0 Add four rect primitives between the rounded corners*
20,1,$1+$1,$2,$3,$4,$5,0*
20,1,$1+$1,$4,$5,$6,$7,0*
20,1,$1+$1,$6,$7,$8,$9,0*
20,1,$1+$1,$8,$9,$2,$3,0*%
G04 Aperture macros list end*
%ADD10R,1.800000X1.800000*%
%ADD11C,1.800000*%
%ADD12C,1.600000*%
%ADD13O,1.600000X1.600000*%
%ADD14R,1.700000X1.700000*%
%ADD15R,1.600000X1.600000*%
%ADD16RoundRect,0.250000X-0.550000X-0.550000X0.550000X-0.550000X0.550000X0.550000X-0.550000X0.550000X0*%
%ADD17C,3.200000*%
%ADD18C,2.000000*%
%ADD19C,1.700000*%
G04 APERTURE END LIST*
D10*
%TO.C,D1*%
X106000000Y-52540000D03*
D11*
X106000000Y-50000000D03*
%TD*%
D12*
%TO.C,R11*%
X150920000Y-63000000D03*
D13*
X161080000Y-63000000D03*
%TD*%
D12*
%TO.C,R2*%
X104000000Y-73920000D03*
D13*
X104000000Y-84080000D03*
%TD*%
D12*
%TO.C,C6*%
X157000000Y-76500000D03*
X157000000Y-81500000D03*
%TD*%
%TO.C,R7*%
X162080000Y-87000000D03*
D13*
X151920000Y-87000000D03*
%TD*%
D12*
%TO.C,R9*%
X135000000Y-63000000D03*
D13*
X124840000Y-63000000D03*
%TD*%
D14*
%TO.C,TP2*%
X166000000Y-83000000D03*
%TD*%
D12*
%TO.C,R8*%
X112920000Y-54000000D03*
D13*
X123080000Y-54000000D03*
%TD*%
D14*
%TO.C,TP3*%
X106000000Y-70000000D03*
%TD*%
D10*
%TO.C,D2*%
X142460000Y-56000000D03*
D11*
X145000000Y-56000000D03*
%TD*%
D12*
%TO.C,C4*%
X126500000Y-69000000D03*
X131500000Y-69000000D03*
%TD*%
D14*
%TO.C,TP1*%
X121000000Y-97000000D03*
%TD*%
D15*
%TO.C,C2*%
X137000000Y-70000000D03*
D12*
X139000000Y-70000000D03*
%TD*%
D16*
%TO.C,U3*%
X116195000Y-74460000D03*
D12*
X116195000Y-77000000D03*
X116195000Y-79540000D03*
X116195000Y-82080000D03*
X123815000Y-82080000D03*
X123815000Y-79540000D03*
X123815000Y-77000000D03*
X123815000Y-74460000D03*
%TD*%
%TO.C,R1*%
X108000000Y-84080000D03*
D13*
X108000000Y-73920000D03*
%TD*%
D12*
%TO.C,R12*%
X161080000Y-67000000D03*
D13*
X150920000Y-67000000D03*
%TD*%
D15*
%TO.C,C5*%
X118500000Y-89000000D03*
D12*
X121000000Y-89000000D03*
%TD*%
D10*
%TO.C,D3*%
X150460000Y-56000000D03*
D11*
X153000000Y-56000000D03*
%TD*%
D17*
%TO.C,MH1*%
X112000000Y-49200000D03*
%TD*%
D12*
%TO.C,R5*%
X137920000Y-91000000D03*
D13*
X148080000Y-91000000D03*
%TD*%
D12*
%TO.C,C3*%
X136000000Y-81500000D03*
X136000000Y-76500000D03*
%TD*%
%TO.C,R4*%
X129000000Y-84080000D03*
D13*
X129000000Y-73920000D03*
%TD*%
D12*
%TO.C,R6*%
X151920000Y-91000000D03*
D13*
X162080000Y-91000000D03*
%TD*%
D18*
%TO.C,SW1*%
X132750000Y-59250000D03*
X132750000Y-52750000D03*
X137250000Y-59250000D03*
X137250000Y-52750000D03*
%TD*%
D10*
%TO.C,D4*%
X158460000Y-56000000D03*
D11*
X161000000Y-56000000D03*
%TD*%
D15*
%TO.C,C1*%
X121000000Y-66000000D03*
D12*
X118500000Y-66000000D03*
%TD*%
D16*
%TO.C,U1*%
X143195000Y-74190000D03*
D12*
X143195000Y-76730000D03*
X143195000Y-79270000D03*
X143195000Y-81810000D03*
X150815000Y-81810000D03*
X150815000Y-79270000D03*
X150815000Y-76730000D03*
X150815000Y-74190000D03*
%TD*%
D17*
%TO.C,MH2*%
X112000000Y-97000000D03*
%TD*%
D12*
%TO.C,R10*%
X137920000Y-63000000D03*
D13*
X148080000Y-63000000D03*
%TD*%
D17*
%TO.C,MH3*%
X166040000Y-64440000D03*
%TD*%
D14*
%TO.C,TP4*%
X106000000Y-97000000D03*
%TD*%
D17*
%TO.C,MH4*%
X166040000Y-92380000D03*
%TD*%
D12*
%TO.C,R3*%
X112000000Y-73920000D03*
D13*
X112000000Y-84080000D03*
%TD*%
D14*
%TO.C,J5*%
X113000000Y-58475000D03*
D19*
X113000000Y-61015000D03*
X113000000Y-63555000D03*
%TD*%
D14*
%TO.C,J1*%
X127940000Y-97460000D03*
D19*
X130480000Y-97460000D03*
X133020000Y-97460000D03*
X135560000Y-97460000D03*
X138100000Y-97460000D03*
X140640000Y-97460000D03*
X143180000Y-97460000D03*
X145720000Y-97460000D03*
%TD*%
D14*
%TO.C,J3*%
X150000000Y-97460000D03*
D19*
X152540000Y-97460000D03*
X155080000Y-97460000D03*
X157620000Y-97460000D03*
X160160000Y-97460000D03*
X162700000Y-97460000D03*
%TD*%
D14*
%TO.C,J2*%
X116000000Y-49200000D03*
D19*
X118540000Y-49200000D03*
X121080000Y-49200000D03*
X123620000Y-49200000D03*
X126160000Y-49200000D03*
X128700000Y-49200000D03*
X131240000Y-49200000D03*
X133780000Y-49200000D03*
X136320000Y-49200000D03*
X138860000Y-49200000D03*
%TD*%
D14*
%TO.C,J4*%
X142460000Y-49200000D03*
D19*
X145000000Y-49200000D03*
X147540000Y-49200000D03*
X150080000Y-49200000D03*
X152620000Y-49200000D03*
X155160000Y-49200000D03*
X157700000Y-49200000D03*
X160240000Y-49200000D03*
%TD*%
M02*
