M48
; DRILL file {KiCad 9.0.1} date 2025-05-17T19:16:14+0200
; FORMAT={-:-/ absolute / metric / decimal}
; #@! TF.CreationDate,2025-05-17T19:16:14+02:00
; #@! TF.GenerationSoftware,Kicad,Pcbnew,9.0.1
; #@! TF.FileFunction,Plated,1,4,PTH
FMAT,2
METRIC
; #@! TA.AperFunction,Plated,PTH,ComponentDrill
T1C0.800
; #@! TA.AperFunction,Plated,PTH,ComponentDrill
T2C0.900
; #@! TA.AperFunction,Plated,PTH,ComponentDrill
T3C1.000
; #@! TA.AperFunction,Plated,PTH,ComponentDrill
T4C1.100
%
G90
G05
T1
X104.0Y-73.92
X104.0Y-84.08
X108.0Y-73.92
X108.0Y-84.08
X112.0Y-73.92
X112.0Y-84.08
X112.92Y-54.0
X116.195Y-74.46
X116.195Y-77.0
X116.195Y-79.54
X116.195Y-82.08
X118.5Y-66.0
X118.5Y-89.0
X121.0Y-66.0
X121.0Y-89.0
X123.08Y-54.0
X123.815Y-74.46
X123.815Y-77.0
X123.815Y-79.54
X123.815Y-82.08
X124.84Y-63.0
X126.5Y-69.0
X129.0Y-73.92
X129.0Y-84.08
X131.5Y-69.0
X135.0Y-63.0
X136.0Y-76.5
X136.0Y-81.5
X137.0Y-70.0
X137.92Y-63.0
X137.92Y-91.0
X139.0Y-70.0
X143.195Y-74.19
X143.195Y-76.73
X143.195Y-79.27
X143.195Y-81.81
X148.08Y-63.0
X148.08Y-91.0
X150.815Y-74.19
X150.815Y-76.73
X150.815Y-79.27
X150.815Y-81.81
X150.92Y-63.0
X150.92Y-67.0
X151.92Y-87.0
X151.92Y-91.0
X157.0Y-76.5
X157.0Y-81.5
X161.08Y-63.0
X161.08Y-67.0
X162.08Y-87.0
X162.08Y-91.0
T2
X106.0Y-50.0
X106.0Y-52.54
X142.46Y-56.0
X145.0Y-56.0
X150.46Y-56.0
X153.0Y-56.0
X158.46Y-56.0
X161.0Y-56.0
T3
X106.0Y-70.0
X106.0Y-97.0
X113.0Y-58.475
X113.0Y-61.015
X113.0Y-63.555
X116.0Y-49.2
X118.54Y-49.2
X121.0Y-97.0
X121.08Y-49.2
X123.62Y-49.2
X126.16Y-49.2
X127.94Y-97.46
X128.7Y-49.2
X130.48Y-97.46
X131.24Y-49.2
X133.02Y-97.46
X133.78Y-49.2
X135.56Y-97.46
X136.32Y-49.2
X138.1Y-97.46
X138.86Y-49.2
X140.64Y-97.46
X142.46Y-49.2
X143.18Y-97.46
X145.0Y-49.2
X145.72Y-97.46
X147.54Y-49.2
X150.0Y-97.46
X150.08Y-49.2
X152.54Y-97.46
X152.62Y-49.2
X155.08Y-97.46
X155.16Y-49.2
X157.62Y-97.46
X157.7Y-49.2
X160.16Y-97.46
X160.24Y-49.2
X162.7Y-97.46
X166.0Y-83.0
T4
X132.75Y-52.75
X132.75Y-59.25
X137.25Y-52.75
X137.25Y-59.25
M30
